<mxfile host="app.diagrams.net" modified="2021-12-08T10:58:08.900Z" agent="5.0 (Windows)" etag="nOCtAtCdvaZfe8-5C87u" version="15.9.1" type="github" pages="4">
  <diagram id="k1b9PWktB-mUNqTBvutM" name="MCD">
    <mxGraphModel dx="960" dy="1722" grid="1" gridSize="10" guides="1" tooltips="1" connect="1" arrows="1" fold="1" page="1" pageScale="1" pageWidth="827" pageHeight="1169" math="0" shadow="0">
      <root>
        <mxCell id="ir1PRDTtGvgjBWMgFl4q-0" />
        <mxCell id="ir1PRDTtGvgjBWMgFl4q-1" parent="ir1PRDTtGvgjBWMgFl4q-0" />
        <mxCell id="Ems-gmoL7VlaEz9lixsN-8" value="Users" style="rounded=0;whiteSpace=wrap;html=1;glass=0;shadow=0;sketch=0;" parent="ir1PRDTtGvgjBWMgFl4q-1" vertex="1">
          <mxGeometry x="754" y="-980" width="56" height="1820" as="geometry" />
        </mxCell>
        <mxCell id="trzIwXk-E31uGHVcY20t-3" value="1,1" style="edgeStyle=elbowEdgeStyle;rounded=0;orthogonalLoop=1;jettySize=auto;html=1;endArrow=none;endFill=0;entryX=0.5;entryY=0;entryDx=0;entryDy=0;exitX=0;exitY=0.75;exitDx=0;exitDy=0;elbow=vertical;" parent="ir1PRDTtGvgjBWMgFl4q-1" source="Ems-gmoL7VlaEz9lixsN-17" target="trzIwXk-E31uGHVcY20t-2" edge="1">
          <mxGeometry x="-0.738" y="10" relative="1" as="geometry">
            <Array as="points">
              <mxPoint x="350" y="-729" />
            </Array>
            <mxPoint as="offset" />
          </mxGeometry>
        </mxCell>
        <mxCell id="Ems-gmoL7VlaEz9lixsN-17" value="Produits" style="rounded=0;whiteSpace=wrap;html=1;" parent="ir1PRDTtGvgjBWMgFl4q-1" vertex="1">
          <mxGeometry x="385" y="-770" width="110" height="54" as="geometry" />
        </mxCell>
        <mxCell id="yBdITjsVdk7lnHHLysCU-9" value="0,N" style="edgeStyle=orthogonalEdgeStyle;rounded=0;orthogonalLoop=1;jettySize=auto;html=1;endArrow=none;endFill=0;fillColor=#d5e8d4;strokeColor=#82b366;" parent="ir1PRDTtGvgjBWMgFl4q-1" source="Ems-gmoL7VlaEz9lixsN-17" target="Ems-gmoL7VlaEz9lixsN-27" edge="1">
          <mxGeometry x="-0.8462" y="20" relative="1" as="geometry">
            <mxPoint as="offset" />
            <mxPoint x="494.9999999999998" y="-890" as="sourcePoint" />
            <Array as="points">
              <mxPoint x="440" y="-890" />
            </Array>
          </mxGeometry>
        </mxCell>
        <mxCell id="SQJCuBqzPmPE8YTCWMTA-35" value="1,N" style="edgeStyle=elbowEdgeStyle;rounded=0;orthogonalLoop=1;jettySize=auto;elbow=vertical;html=1;exitX=1;exitY=0.5;exitDx=0;exitDy=0;endArrow=none;endFill=0;fillColor=#d5e8d4;strokeColor=#82b366;" parent="ir1PRDTtGvgjBWMgFl4q-1" source="Ems-gmoL7VlaEz9lixsN-27" target="Ems-gmoL7VlaEz9lixsN-8" edge="1">
          <mxGeometry y="10" relative="1" as="geometry">
            <mxPoint as="offset" />
          </mxGeometry>
        </mxCell>
        <mxCell id="Ems-gmoL7VlaEz9lixsN-27" value="Panier" style="ellipse;whiteSpace=wrap;html=1;fillColor=#d5e8d4;strokeColor=#82b366;" parent="ir1PRDTtGvgjBWMgFl4q-1" vertex="1">
          <mxGeometry x="580" y="-920" width="120" height="60" as="geometry" />
        </mxCell>
        <mxCell id="yBdITjsVdk7lnHHLysCU-19" value="0,N" style="edgeStyle=orthogonalEdgeStyle;rounded=0;orthogonalLoop=1;jettySize=auto;html=1;exitX=1;exitY=0.5;exitDx=0;exitDy=0;entryX=0;entryY=0.5;entryDx=0;entryDy=0;endArrow=none;endFill=0;fillColor=#f8cecc;strokeColor=#b85450;" parent="ir1PRDTtGvgjBWMgFl4q-1" source="Ems-gmoL7VlaEz9lixsN-35" target="6xAeUnvmwOhO6haDIeZQ-18" edge="1">
          <mxGeometry x="-0.1429" y="10" relative="1" as="geometry">
            <mxPoint as="offset" />
          </mxGeometry>
        </mxCell>
        <mxCell id="Ems-gmoL7VlaEz9lixsN-35" value="Catégorie Produits" style="rounded=0;whiteSpace=wrap;html=1;" parent="ir1PRDTtGvgjBWMgFl4q-1" vertex="1">
          <mxGeometry x="385" y="-546" width="110" height="60" as="geometry" />
        </mxCell>
        <mxCell id="yBdITjsVdk7lnHHLysCU-17" value="1,1" style="edgeStyle=orthogonalEdgeStyle;rounded=0;orthogonalLoop=1;jettySize=auto;html=1;endArrow=none;endFill=0;" parent="ir1PRDTtGvgjBWMgFl4q-1" source="Ems-gmoL7VlaEz9lixsN-36" target="Ems-gmoL7VlaEz9lixsN-17" edge="1">
          <mxGeometry x="0.4667" y="-10" relative="1" as="geometry">
            <mxPoint as="offset" />
          </mxGeometry>
        </mxCell>
        <mxCell id="yBdITjsVdk7lnHHLysCU-18" value="1,N" style="edgeStyle=orthogonalEdgeStyle;rounded=0;orthogonalLoop=1;jettySize=auto;html=1;exitX=0.5;exitY=1;exitDx=0;exitDy=0;entryX=0.5;entryY=0;entryDx=0;entryDy=0;endArrow=none;endFill=0;" parent="ir1PRDTtGvgjBWMgFl4q-1" source="Ems-gmoL7VlaEz9lixsN-36" target="Ems-gmoL7VlaEz9lixsN-35" edge="1">
          <mxGeometry x="0.44" y="20" relative="1" as="geometry">
            <mxPoint as="offset" />
          </mxGeometry>
        </mxCell>
        <mxCell id="Ems-gmoL7VlaEz9lixsN-36" value="Contenir" style="ellipse;whiteSpace=wrap;html=1;" parent="ir1PRDTtGvgjBWMgFl4q-1" vertex="1">
          <mxGeometry x="380" y="-656" width="120" height="60" as="geometry" />
        </mxCell>
        <mxCell id="yBdITjsVdk7lnHHLysCU-16" value="1,N" style="edgeStyle=orthogonalEdgeStyle;rounded=0;orthogonalLoop=1;jettySize=auto;html=1;exitX=0;exitY=0.5;exitDx=0;exitDy=0;endArrow=none;endFill=0;fillColor=#fff2cc;strokeColor=#d6b656;" parent="ir1PRDTtGvgjBWMgFl4q-1" source="DhKpnIFWA9yoigp-8hZU-3" target="Ems-gmoL7VlaEz9lixsN-17" edge="1">
          <mxGeometry x="0.4118" y="-17" relative="1" as="geometry">
            <mxPoint as="offset" />
          </mxGeometry>
        </mxCell>
        <mxCell id="SQJCuBqzPmPE8YTCWMTA-38" value="0,N" style="edgeStyle=elbowEdgeStyle;rounded=0;orthogonalLoop=1;jettySize=auto;elbow=vertical;html=1;exitX=1;exitY=0.5;exitDx=0;exitDy=0;endArrow=none;endFill=0;" parent="ir1PRDTtGvgjBWMgFl4q-1" source="DhKpnIFWA9yoigp-8hZU-3" edge="1">
          <mxGeometry y="20" relative="1" as="geometry">
            <mxPoint as="offset" />
          </mxGeometry>
        </mxCell>
        <mxCell id="lxnOK-8bjp72yX0c8KQZ-0" value="0,N" style="edgeStyle=elbowEdgeStyle;rounded=0;orthogonalLoop=1;jettySize=auto;html=1;elbow=vertical;endArrow=none;endFill=0;fillColor=#fff2cc;strokeColor=#d6b656;" parent="ir1PRDTtGvgjBWMgFl4q-1" source="DhKpnIFWA9yoigp-8hZU-3" edge="1">
          <mxGeometry x="0.4815" y="14" relative="1" as="geometry">
            <mxPoint as="offset" />
            <mxPoint x="754" y="-743.5294117647059" as="targetPoint" />
          </mxGeometry>
        </mxCell>
        <mxCell id="DhKpnIFWA9yoigp-8hZU-3" value="Gérer" style="ellipse;whiteSpace=wrap;html=1;fillColor=#fff2cc;strokeColor=#d6b656;" parent="ir1PRDTtGvgjBWMgFl4q-1" vertex="1">
          <mxGeometry x="580" y="-773" width="120" height="60" as="geometry" />
        </mxCell>
        <mxCell id="6xAeUnvmwOhO6haDIeZQ-14" value="Promotions" style="rounded=0;whiteSpace=wrap;html=1;" parent="ir1PRDTtGvgjBWMgFl4q-1" vertex="1">
          <mxGeometry x="385" y="-476.5" width="110" height="54" as="geometry" />
        </mxCell>
        <mxCell id="yBdITjsVdk7lnHHLysCU-23" value="0,N" style="edgeStyle=orthogonalEdgeStyle;rounded=0;orthogonalLoop=1;jettySize=auto;html=1;exitX=0;exitY=0.5;exitDx=0;exitDy=0;endArrow=none;endFill=0;fillColor=#fff2cc;strokeColor=#d6b656;" parent="ir1PRDTtGvgjBWMgFl4q-1" source="6xAeUnvmwOhO6haDIeZQ-17" target="6xAeUnvmwOhO6haDIeZQ-14" edge="1">
          <mxGeometry x="0.2371" y="-14" relative="1" as="geometry">
            <mxPoint as="offset" />
          </mxGeometry>
        </mxCell>
        <mxCell id="SQJCuBqzPmPE8YTCWMTA-41" value="0,N" style="edgeStyle=elbowEdgeStyle;rounded=0;orthogonalLoop=1;jettySize=auto;elbow=vertical;html=1;exitX=1;exitY=0.5;exitDx=0;exitDy=0;endArrow=none;endFill=0;" parent="ir1PRDTtGvgjBWMgFl4q-1" source="6xAeUnvmwOhO6haDIeZQ-17" edge="1">
          <mxGeometry x="0.1193" y="15" relative="1" as="geometry">
            <mxPoint as="offset" />
          </mxGeometry>
        </mxCell>
        <mxCell id="lxnOK-8bjp72yX0c8KQZ-3" value="0,N" style="edgeStyle=elbowEdgeStyle;rounded=0;orthogonalLoop=1;jettySize=auto;html=1;elbow=vertical;endArrow=none;endFill=0;fillColor=#fff2cc;strokeColor=#d6b656;" parent="ir1PRDTtGvgjBWMgFl4q-1" source="6xAeUnvmwOhO6haDIeZQ-17" edge="1">
          <mxGeometry x="0.4816" y="-11" relative="1" as="geometry">
            <mxPoint as="offset" />
            <mxPoint x="754" y="-449.32352941176464" as="targetPoint" />
          </mxGeometry>
        </mxCell>
        <mxCell id="6xAeUnvmwOhO6haDIeZQ-17" value="Gérer" style="ellipse;whiteSpace=wrap;html=1;fillColor=#fff2cc;strokeColor=#d6b656;" parent="ir1PRDTtGvgjBWMgFl4q-1" vertex="1">
          <mxGeometry x="580" y="-480" width="120" height="61" as="geometry" />
        </mxCell>
        <mxCell id="SQJCuBqzPmPE8YTCWMTA-39" value="0,N" style="edgeStyle=elbowEdgeStyle;rounded=0;orthogonalLoop=1;jettySize=auto;elbow=vertical;html=1;exitX=1;exitY=0.5;exitDx=0;exitDy=0;endArrow=none;endFill=0;" parent="ir1PRDTtGvgjBWMgFl4q-1" source="6xAeUnvmwOhO6haDIeZQ-18" edge="1">
          <mxGeometry y="10" relative="1" as="geometry">
            <mxPoint as="offset" />
          </mxGeometry>
        </mxCell>
        <mxCell id="lxnOK-8bjp72yX0c8KQZ-6" value="0,N" style="edgeStyle=elbowEdgeStyle;rounded=0;orthogonalLoop=1;jettySize=auto;html=1;elbow=vertical;endArrow=none;endFill=0;fillColor=#f8cecc;strokeColor=#b85450;" parent="ir1PRDTtGvgjBWMgFl4q-1" source="6xAeUnvmwOhO6haDIeZQ-18" edge="1">
          <mxGeometry x="-0.6296" y="14" relative="1" as="geometry">
            <mxPoint as="offset" />
            <mxPoint x="754" y="-516.4705882352941" as="targetPoint" />
          </mxGeometry>
        </mxCell>
        <mxCell id="6xAeUnvmwOhO6haDIeZQ-18" value="Gérer" style="ellipse;whiteSpace=wrap;html=1;fillColor=#f8cecc;strokeColor=#b85450;" parent="ir1PRDTtGvgjBWMgFl4q-1" vertex="1">
          <mxGeometry x="580" y="-546" width="120" height="60" as="geometry" />
        </mxCell>
        <mxCell id="6xAeUnvmwOhO6haDIeZQ-22" value="Commande" style="rounded=0;whiteSpace=wrap;html=1;" parent="ir1PRDTtGvgjBWMgFl4q-1" vertex="1">
          <mxGeometry x="385" y="-410.5" width="110" height="60" as="geometry" />
        </mxCell>
        <mxCell id="yBdITjsVdk7lnHHLysCU-25" value="1,1" style="edgeStyle=orthogonalEdgeStyle;rounded=0;orthogonalLoop=1;jettySize=auto;html=1;exitX=0;exitY=0.5;exitDx=0;exitDy=0;entryX=1;entryY=0.5;entryDx=0;entryDy=0;endArrow=none;endFill=0;fillColor=#d5e8d4;strokeColor=#82b366;" parent="ir1PRDTtGvgjBWMgFl4q-1" source="6xAeUnvmwOhO6haDIeZQ-23" target="6xAeUnvmwOhO6haDIeZQ-22" edge="1">
          <mxGeometry x="0.7143" y="-10" relative="1" as="geometry">
            <mxPoint as="offset" />
          </mxGeometry>
        </mxCell>
        <mxCell id="SQJCuBqzPmPE8YTCWMTA-42" value="0,N" style="edgeStyle=elbowEdgeStyle;rounded=0;orthogonalLoop=1;jettySize=auto;elbow=vertical;html=1;exitX=1;exitY=0.5;exitDx=0;exitDy=0;endArrow=none;endFill=0;" parent="ir1PRDTtGvgjBWMgFl4q-1" source="6xAeUnvmwOhO6haDIeZQ-23" edge="1">
          <mxGeometry y="16" relative="1" as="geometry">
            <mxPoint as="offset" />
          </mxGeometry>
        </mxCell>
        <mxCell id="lxnOK-8bjp72yX0c8KQZ-2" value="0,N" style="edgeStyle=elbowEdgeStyle;rounded=0;orthogonalLoop=1;jettySize=auto;html=1;elbow=vertical;endArrow=none;endFill=0;fillColor=#d5e8d4;strokeColor=#82b366;" parent="ir1PRDTtGvgjBWMgFl4q-1" source="6xAeUnvmwOhO6haDIeZQ-23" edge="1">
          <mxGeometry x="0.4815" y="10" relative="1" as="geometry">
            <mxPoint as="offset" />
            <mxPoint x="754" y="-380.5" as="targetPoint" />
          </mxGeometry>
        </mxCell>
        <mxCell id="6xAeUnvmwOhO6haDIeZQ-23" value="Passer" style="ellipse;whiteSpace=wrap;html=1;fillColor=#d5e8d4;strokeColor=#82b366;" parent="ir1PRDTtGvgjBWMgFl4q-1" vertex="1">
          <mxGeometry x="580" y="-410.5" width="120" height="60" as="geometry" />
        </mxCell>
        <mxCell id="6xAeUnvmwOhO6haDIeZQ-34" value="Adresse" style="rounded=0;whiteSpace=wrap;html=1;" parent="ir1PRDTtGvgjBWMgFl4q-1" vertex="1">
          <mxGeometry x="385" y="-340.5" width="110" height="60" as="geometry" />
        </mxCell>
        <mxCell id="yBdITjsVdk7lnHHLysCU-28" value="1,1" style="edgeStyle=orthogonalEdgeStyle;rounded=0;orthogonalLoop=1;jettySize=auto;html=1;exitX=0;exitY=0.5;exitDx=0;exitDy=0;endArrow=none;endFill=0;fillColor=#d5e8d4;strokeColor=#82b366;" parent="ir1PRDTtGvgjBWMgFl4q-1" source="6xAeUnvmwOhO6haDIeZQ-36" target="6xAeUnvmwOhO6haDIeZQ-34" edge="1">
          <mxGeometry x="0.7241" y="-15" relative="1" as="geometry">
            <mxPoint as="offset" />
          </mxGeometry>
        </mxCell>
        <mxCell id="SQJCuBqzPmPE8YTCWMTA-43" value="0,N" style="edgeStyle=elbowEdgeStyle;rounded=0;orthogonalLoop=1;jettySize=auto;html=1;exitX=1;exitY=0.5;exitDx=0;exitDy=0;endArrow=none;endFill=0;elbow=vertical;fillColor=#d5e8d4;strokeColor=#82b366;" parent="ir1PRDTtGvgjBWMgFl4q-1" source="6xAeUnvmwOhO6haDIeZQ-36" edge="1">
          <mxGeometry y="10" relative="1" as="geometry">
            <mxPoint x="754" y="-310.5" as="targetPoint" />
            <mxPoint as="offset" />
          </mxGeometry>
        </mxCell>
        <mxCell id="6xAeUnvmwOhO6haDIeZQ-36" value="Gérer" style="ellipse;whiteSpace=wrap;html=1;fillColor=#d5e8d4;strokeColor=#82b366;" parent="ir1PRDTtGvgjBWMgFl4q-1" vertex="1">
          <mxGeometry x="580" y="-340.5" width="120" height="60" as="geometry" />
        </mxCell>
        <mxCell id="6xAeUnvmwOhO6haDIeZQ-39" value="Données bancaires" style="rounded=0;whiteSpace=wrap;html=1;" parent="ir1PRDTtGvgjBWMgFl4q-1" vertex="1">
          <mxGeometry x="385" y="-270.5" width="110" height="60" as="geometry" />
        </mxCell>
        <mxCell id="yBdITjsVdk7lnHHLysCU-32" value="1,1" style="edgeStyle=orthogonalEdgeStyle;rounded=0;orthogonalLoop=1;jettySize=auto;html=1;exitX=0;exitY=0.5;exitDx=0;exitDy=0;endArrow=none;endFill=0;fillColor=#d5e8d4;strokeColor=#82b366;" parent="ir1PRDTtGvgjBWMgFl4q-1" source="6xAeUnvmwOhO6haDIeZQ-41" target="6xAeUnvmwOhO6haDIeZQ-39" edge="1">
          <mxGeometry x="0.7241" y="-15" relative="1" as="geometry">
            <mxPoint as="offset" />
          </mxGeometry>
        </mxCell>
        <mxCell id="SQJCuBqzPmPE8YTCWMTA-45" value="0,N" style="edgeStyle=elbowEdgeStyle;rounded=0;orthogonalLoop=1;jettySize=auto;html=1;exitX=1;exitY=0.5;exitDx=0;exitDy=0;endArrow=none;endFill=0;elbow=vertical;fillColor=#d5e8d4;strokeColor=#82b366;" parent="ir1PRDTtGvgjBWMgFl4q-1" source="6xAeUnvmwOhO6haDIeZQ-41" edge="1">
          <mxGeometry x="0.4815" y="11" relative="1" as="geometry">
            <mxPoint x="754" y="-240.5" as="targetPoint" />
            <mxPoint as="offset" />
          </mxGeometry>
        </mxCell>
        <mxCell id="6xAeUnvmwOhO6haDIeZQ-41" value="Gérer" style="ellipse;whiteSpace=wrap;html=1;fillColor=#d5e8d4;strokeColor=#82b366;" parent="ir1PRDTtGvgjBWMgFl4q-1" vertex="1">
          <mxGeometry x="580" y="-270.5" width="120" height="60" as="geometry" />
        </mxCell>
        <mxCell id="6xAeUnvmwOhO6haDIeZQ-44" value="Status" style="rounded=0;whiteSpace=wrap;html=1;" parent="ir1PRDTtGvgjBWMgFl4q-1" vertex="1">
          <mxGeometry x="440" y="-980" width="110" height="60" as="geometry" />
        </mxCell>
        <mxCell id="6xAeUnvmwOhO6haDIeZQ-52" value="Paliers points" style="rounded=0;whiteSpace=wrap;html=1;" parent="ir1PRDTtGvgjBWMgFl4q-1" vertex="1">
          <mxGeometry x="385" y="-200" width="110" height="60" as="geometry" />
        </mxCell>
        <mxCell id="SQJCuBqzPmPE8YTCWMTA-3" value="0,N" style="edgeStyle=orthogonalEdgeStyle;rounded=0;orthogonalLoop=1;jettySize=auto;html=1;endArrow=none;endFill=0;fillColor=#f8cecc;strokeColor=#b85450;" parent="ir1PRDTtGvgjBWMgFl4q-1" source="6xAeUnvmwOhO6haDIeZQ-54" target="6xAeUnvmwOhO6haDIeZQ-52" edge="1">
          <mxGeometry x="0.7241" y="-15" relative="1" as="geometry">
            <mxPoint as="offset" />
            <Array as="points" />
          </mxGeometry>
        </mxCell>
        <mxCell id="SQJCuBqzPmPE8YTCWMTA-53" value="0,N" style="edgeStyle=elbowEdgeStyle;rounded=0;orthogonalLoop=1;jettySize=auto;html=1;exitX=1;exitY=0.5;exitDx=0;exitDy=0;endArrow=none;endFill=0;elbow=vertical;fillColor=#f8cecc;strokeColor=#b85450;" parent="ir1PRDTtGvgjBWMgFl4q-1" source="6xAeUnvmwOhO6haDIeZQ-54" edge="1">
          <mxGeometry x="0.4815" y="11" relative="1" as="geometry">
            <mxPoint x="754" y="-171" as="targetPoint" />
            <mxPoint as="offset" />
          </mxGeometry>
        </mxCell>
        <mxCell id="6xAeUnvmwOhO6haDIeZQ-54" value="Gérer" style="ellipse;whiteSpace=wrap;html=1;fillColor=#f8cecc;strokeColor=#b85450;" parent="ir1PRDTtGvgjBWMgFl4q-1" vertex="1">
          <mxGeometry x="580" y="-200" width="120" height="60" as="geometry" />
        </mxCell>
        <mxCell id="6xAeUnvmwOhO6haDIeZQ-57" value="Bloquages paiements" style="rounded=0;whiteSpace=wrap;html=1;" parent="ir1PRDTtGvgjBWMgFl4q-1" vertex="1">
          <mxGeometry x="385" y="-130" width="110" height="60" as="geometry" />
        </mxCell>
        <mxCell id="SQJCuBqzPmPE8YTCWMTA-7" value="0,N" style="edgeStyle=orthogonalEdgeStyle;rounded=0;orthogonalLoop=1;jettySize=auto;html=1;endArrow=none;endFill=0;fillColor=#f8cecc;strokeColor=#b85450;" parent="ir1PRDTtGvgjBWMgFl4q-1" source="6xAeUnvmwOhO6haDIeZQ-59" target="6xAeUnvmwOhO6haDIeZQ-57" edge="1">
          <mxGeometry x="0.7241" y="-15" relative="1" as="geometry">
            <mxPoint as="offset" />
          </mxGeometry>
        </mxCell>
        <mxCell id="SQJCuBqzPmPE8YTCWMTA-55" value="0,N" style="edgeStyle=elbowEdgeStyle;rounded=0;orthogonalLoop=1;jettySize=auto;html=1;exitX=1;exitY=0.5;exitDx=0;exitDy=0;endArrow=none;endFill=0;elbow=vertical;fillColor=#f8cecc;strokeColor=#b85450;" parent="ir1PRDTtGvgjBWMgFl4q-1" source="6xAeUnvmwOhO6haDIeZQ-59" edge="1">
          <mxGeometry x="0.4815" y="12" relative="1" as="geometry">
            <mxPoint x="754" y="-100" as="targetPoint" />
            <mxPoint as="offset" />
            <Array as="points">
              <mxPoint x="730" y="-100" />
              <mxPoint x="720" y="-92" />
            </Array>
          </mxGeometry>
        </mxCell>
        <mxCell id="6xAeUnvmwOhO6haDIeZQ-59" value="Gérer" style="ellipse;whiteSpace=wrap;html=1;fillColor=#f8cecc;strokeColor=#b85450;" parent="ir1PRDTtGvgjBWMgFl4q-1" vertex="1">
          <mxGeometry x="580" y="-130" width="120" height="60" as="geometry" />
        </mxCell>
        <mxCell id="6xAeUnvmwOhO6haDIeZQ-62" value="All Users" style="ellipse;whiteSpace=wrap;html=1;fillColor=#d5e8d4;strokeColor=#82b366;" parent="ir1PRDTtGvgjBWMgFl4q-1" vertex="1">
          <mxGeometry x="60" y="-980" width="120" height="50" as="geometry" />
        </mxCell>
        <mxCell id="6xAeUnvmwOhO6haDIeZQ-63" value="Admin" style="ellipse;whiteSpace=wrap;html=1;fillColor=#f8cecc;strokeColor=#b85450;" parent="ir1PRDTtGvgjBWMgFl4q-1" vertex="1">
          <mxGeometry x="60" y="-840" width="120" height="50" as="geometry" />
        </mxCell>
        <mxCell id="6xAeUnvmwOhO6haDIeZQ-64" value="Vendeurs" style="ellipse;whiteSpace=wrap;html=1;fillColor=#fff2cc;strokeColor=#d6b656;" parent="ir1PRDTtGvgjBWMgFl4q-1" vertex="1">
          <mxGeometry x="60" y="-915" width="120" height="60" as="geometry" />
        </mxCell>
        <mxCell id="6xAeUnvmwOhO6haDIeZQ-65" value="Videos" style="rounded=0;whiteSpace=wrap;html=1;" parent="ir1PRDTtGvgjBWMgFl4q-1" vertex="1">
          <mxGeometry x="385" y="10" width="110" height="60" as="geometry" />
        </mxCell>
        <mxCell id="SQJCuBqzPmPE8YTCWMTA-11" value="1,N" style="edgeStyle=orthogonalEdgeStyle;rounded=0;orthogonalLoop=1;jettySize=auto;html=1;exitX=0;exitY=0.5;exitDx=0;exitDy=0;endArrow=none;endFill=0;fillColor=#fff2cc;strokeColor=#d6b656;" parent="ir1PRDTtGvgjBWMgFl4q-1" source="6xAeUnvmwOhO6haDIeZQ-67" target="6xAeUnvmwOhO6haDIeZQ-65" edge="1">
          <mxGeometry x="0.5172" y="-10" relative="1" as="geometry">
            <mxPoint as="offset" />
          </mxGeometry>
        </mxCell>
        <mxCell id="SQJCuBqzPmPE8YTCWMTA-57" value="0,N" style="edgeStyle=elbowEdgeStyle;rounded=0;orthogonalLoop=1;jettySize=auto;elbow=vertical;html=1;exitX=1;exitY=0.5;exitDx=0;exitDy=0;endArrow=none;endFill=0;fillColor=#fff2cc;strokeColor=#d6b656;" parent="ir1PRDTtGvgjBWMgFl4q-1" source="6xAeUnvmwOhO6haDIeZQ-67" edge="1">
          <mxGeometry x="0.4815" y="10" relative="1" as="geometry">
            <mxPoint x="754" y="40" as="targetPoint" />
            <mxPoint as="offset" />
          </mxGeometry>
        </mxCell>
        <mxCell id="6xAeUnvmwOhO6haDIeZQ-67" value="Gérer" style="ellipse;whiteSpace=wrap;html=1;fillColor=#fff2cc;strokeColor=#d6b656;" parent="ir1PRDTtGvgjBWMgFl4q-1" vertex="1">
          <mxGeometry x="580" y="10" width="120" height="60" as="geometry" />
        </mxCell>
        <mxCell id="8LoNdRKf65lTUbJcNKsQ-0" value="0,N" style="edgeStyle=orthogonalEdgeStyle;rounded=0;orthogonalLoop=1;jettySize=auto;html=1;exitX=0;exitY=0.5;exitDx=0;exitDy=0;endArrow=none;endFill=0;fillColor=#d5e8d4;strokeColor=#82b366;" parent="ir1PRDTtGvgjBWMgFl4q-1" source="6xAeUnvmwOhO6haDIeZQ-77" target="6xAeUnvmwOhO6haDIeZQ-80" edge="1">
          <mxGeometry x="0.8443" y="15" relative="1" as="geometry">
            <mxPoint as="offset" />
          </mxGeometry>
        </mxCell>
        <mxCell id="8LoNdRKf65lTUbJcNKsQ-1" value="0,N" style="edgeStyle=elbowEdgeStyle;rounded=0;orthogonalLoop=1;jettySize=auto;html=1;exitX=1;exitY=0.5;exitDx=0;exitDy=0;endArrow=none;endFill=0;elbow=vertical;fillColor=#d5e8d4;strokeColor=#82b366;" parent="ir1PRDTtGvgjBWMgFl4q-1" source="6xAeUnvmwOhO6haDIeZQ-77" edge="1">
          <mxGeometry x="0.4815" y="11" relative="1" as="geometry">
            <mxPoint x="754" y="250" as="targetPoint" />
            <mxPoint as="offset" />
          </mxGeometry>
        </mxCell>
        <mxCell id="6xAeUnvmwOhO6haDIeZQ-77" value="Liker / Disliker" style="ellipse;whiteSpace=wrap;html=1;fillColor=#d5e8d4;strokeColor=#82b366;" parent="ir1PRDTtGvgjBWMgFl4q-1" vertex="1">
          <mxGeometry x="580" y="220" width="120" height="60" as="geometry" />
        </mxCell>
        <mxCell id="SQJCuBqzPmPE8YTCWMTA-20" value="1,N" style="edgeStyle=orthogonalEdgeStyle;rounded=0;orthogonalLoop=1;jettySize=auto;html=1;exitX=1;exitY=0.5;exitDx=0;exitDy=0;endArrow=none;endFill=0;fillColor=#d5e8d4;strokeColor=#82b366;" parent="ir1PRDTtGvgjBWMgFl4q-1" source="6xAeUnvmwOhO6haDIeZQ-80" target="6xAeUnvmwOhO6haDIeZQ-82" edge="1">
          <mxGeometry x="-0.7143" y="11" relative="1" as="geometry">
            <mxPoint as="offset" />
          </mxGeometry>
        </mxCell>
        <mxCell id="6xAeUnvmwOhO6haDIeZQ-80" value="Sujets" style="rounded=0;whiteSpace=wrap;html=1;" parent="ir1PRDTtGvgjBWMgFl4q-1" vertex="1">
          <mxGeometry x="385" y="292" width="110" height="58" as="geometry" />
        </mxCell>
        <mxCell id="SQJCuBqzPmPE8YTCWMTA-62" value="0,N" style="edgeStyle=elbowEdgeStyle;rounded=0;orthogonalLoop=1;jettySize=auto;elbow=vertical;html=1;exitX=1;exitY=0.5;exitDx=0;exitDy=0;endArrow=none;endFill=0;fillColor=#d5e8d4;strokeColor=#82b366;" parent="ir1PRDTtGvgjBWMgFl4q-1" source="6xAeUnvmwOhO6haDIeZQ-82" edge="1">
          <mxGeometry x="0.4815" y="11" relative="1" as="geometry">
            <mxPoint x="754" y="321" as="targetPoint" />
            <mxPoint as="offset" />
          </mxGeometry>
        </mxCell>
        <mxCell id="6xAeUnvmwOhO6haDIeZQ-82" value="Gérer" style="ellipse;whiteSpace=wrap;html=1;fillColor=#d5e8d4;strokeColor=#82b366;" parent="ir1PRDTtGvgjBWMgFl4q-1" vertex="1">
          <mxGeometry x="580" y="291" width="120" height="60" as="geometry" />
        </mxCell>
        <mxCell id="SQJCuBqzPmPE8YTCWMTA-24" value="0,N" style="edgeStyle=orthogonalEdgeStyle;rounded=0;orthogonalLoop=1;jettySize=auto;html=1;exitX=1;exitY=0.5;exitDx=0;exitDy=0;entryX=0;entryY=0.5;entryDx=0;entryDy=0;endArrow=none;endFill=0;fillColor=#f8cecc;strokeColor=#b85450;" parent="ir1PRDTtGvgjBWMgFl4q-1" source="6xAeUnvmwOhO6haDIeZQ-89" target="6xAeUnvmwOhO6haDIeZQ-95" edge="1">
          <mxGeometry x="-0.5" y="11" relative="1" as="geometry">
            <mxPoint as="offset" />
          </mxGeometry>
        </mxCell>
        <mxCell id="6xAeUnvmwOhO6haDIeZQ-89" value="Catégories forum" style="rounded=0;whiteSpace=wrap;html=1;" parent="ir1PRDTtGvgjBWMgFl4q-1" vertex="1">
          <mxGeometry x="385" y="360" width="110" height="58" as="geometry" />
        </mxCell>
        <mxCell id="SQJCuBqzPmPE8YTCWMTA-64" value="0,N" style="edgeStyle=elbowEdgeStyle;rounded=0;orthogonalLoop=1;jettySize=auto;elbow=vertical;html=1;exitX=1;exitY=0.5;exitDx=0;exitDy=0;endArrow=none;endFill=0;fillColor=#f8cecc;strokeColor=#b85450;" parent="ir1PRDTtGvgjBWMgFl4q-1" source="6xAeUnvmwOhO6haDIeZQ-95" edge="1">
          <mxGeometry x="0.4815" y="11" relative="1" as="geometry">
            <mxPoint x="754" y="389" as="targetPoint" />
            <mxPoint as="offset" />
          </mxGeometry>
        </mxCell>
        <mxCell id="6xAeUnvmwOhO6haDIeZQ-95" value="Gérer" style="ellipse;whiteSpace=wrap;html=1;fillColor=#f8cecc;strokeColor=#b85450;" parent="ir1PRDTtGvgjBWMgFl4q-1" vertex="1">
          <mxGeometry x="580" y="359" width="120" height="60" as="geometry" />
        </mxCell>
        <mxCell id="SQJCuBqzPmPE8YTCWMTA-27" value="0,N" style="edgeStyle=orthogonalEdgeStyle;rounded=0;orthogonalLoop=1;jettySize=auto;html=1;exitX=1;exitY=0.5;exitDx=0;exitDy=0;entryX=0;entryY=0.5;entryDx=0;entryDy=0;endArrow=none;endFill=0;fillColor=#d5e8d4;strokeColor=#82b366;" parent="ir1PRDTtGvgjBWMgFl4q-1" source="6xAeUnvmwOhO6haDIeZQ-99" target="6xAeUnvmwOhO6haDIeZQ-102" edge="1">
          <mxGeometry x="-0.5" y="11" relative="1" as="geometry">
            <mxPoint as="offset" />
          </mxGeometry>
        </mxCell>
        <mxCell id="6xAeUnvmwOhO6haDIeZQ-99" value="Messages Forum" style="rounded=0;whiteSpace=wrap;html=1;" parent="ir1PRDTtGvgjBWMgFl4q-1" vertex="1">
          <mxGeometry x="385" y="498" width="110" height="58" as="geometry" />
        </mxCell>
        <mxCell id="SQJCuBqzPmPE8YTCWMTA-26" value="0,N" style="edgeStyle=orthogonalEdgeStyle;rounded=0;orthogonalLoop=1;jettySize=auto;html=1;exitX=0;exitY=0.5;exitDx=0;exitDy=0;entryX=0.5;entryY=0;entryDx=0;entryDy=0;endArrow=none;endFill=0;fillColor=#d5e8d4;strokeColor=#82b366;" parent="ir1PRDTtGvgjBWMgFl4q-1" source="6xAeUnvmwOhO6haDIeZQ-101" target="6xAeUnvmwOhO6haDIeZQ-99" edge="1">
          <mxGeometry x="0.8636" y="15" relative="1" as="geometry">
            <mxPoint as="offset" />
          </mxGeometry>
        </mxCell>
        <mxCell id="SQJCuBqzPmPE8YTCWMTA-65" value="0,N" style="edgeStyle=elbowEdgeStyle;rounded=0;orthogonalLoop=1;jettySize=auto;elbow=vertical;html=1;exitX=1;exitY=0.5;exitDx=0;exitDy=0;endArrow=none;endFill=0;fillColor=#d5e8d4;strokeColor=#82b366;" parent="ir1PRDTtGvgjBWMgFl4q-1" source="6xAeUnvmwOhO6haDIeZQ-101" edge="1">
          <mxGeometry x="0.4815" y="11" relative="1" as="geometry">
            <mxPoint x="754" y="457" as="targetPoint" />
            <mxPoint as="offset" />
          </mxGeometry>
        </mxCell>
        <mxCell id="6xAeUnvmwOhO6haDIeZQ-101" value="Liker / Disliker" style="ellipse;whiteSpace=wrap;html=1;fillColor=#d5e8d4;strokeColor=#82b366;" parent="ir1PRDTtGvgjBWMgFl4q-1" vertex="1">
          <mxGeometry x="580" y="427" width="120" height="60" as="geometry" />
        </mxCell>
        <mxCell id="SQJCuBqzPmPE8YTCWMTA-66" value="0,N" style="edgeStyle=elbowEdgeStyle;rounded=0;orthogonalLoop=1;jettySize=auto;elbow=vertical;html=1;exitX=1;exitY=0.5;exitDx=0;exitDy=0;endArrow=none;endFill=0;fillColor=#d5e8d4;strokeColor=#82b366;" parent="ir1PRDTtGvgjBWMgFl4q-1" source="6xAeUnvmwOhO6haDIeZQ-102" edge="1">
          <mxGeometry x="0.4815" y="11" relative="1" as="geometry">
            <mxPoint x="754" y="527" as="targetPoint" />
            <mxPoint as="offset" />
          </mxGeometry>
        </mxCell>
        <mxCell id="6xAeUnvmwOhO6haDIeZQ-102" value="Gérer" style="ellipse;whiteSpace=wrap;html=1;fillColor=#d5e8d4;strokeColor=#82b366;" parent="ir1PRDTtGvgjBWMgFl4q-1" vertex="1">
          <mxGeometry x="580" y="497" width="120" height="60" as="geometry" />
        </mxCell>
        <mxCell id="IEtz67zzkuUhbgyWgrqV-1" value="0,N" style="edgeStyle=orthogonalEdgeStyle;rounded=0;orthogonalLoop=1;jettySize=auto;html=1;exitX=1;exitY=0.5;exitDx=0;exitDy=0;entryX=0;entryY=0.5;entryDx=0;entryDy=0;endArrow=none;endFill=0;fillColor=#f8cecc;strokeColor=#b85450;" parent="ir1PRDTtGvgjBWMgFl4q-1" source="IEtz67zzkuUhbgyWgrqV-2" target="IEtz67zzkuUhbgyWgrqV-5" edge="1">
          <mxGeometry x="-0.5" y="15" relative="1" as="geometry">
            <mxPoint as="offset" />
          </mxGeometry>
        </mxCell>
        <mxCell id="IEtz67zzkuUhbgyWgrqV-2" value="Rubriques (Vidéos)" style="rounded=0;whiteSpace=wrap;html=1;" parent="ir1PRDTtGvgjBWMgFl4q-1" vertex="1">
          <mxGeometry x="385" y="81" width="110" height="58" as="geometry" />
        </mxCell>
        <mxCell id="Yh0MuZpLJdci4y8NJo_1-2" value="0,N" style="edgeStyle=elbowEdgeStyle;rounded=0;orthogonalLoop=1;jettySize=auto;elbow=vertical;html=1;exitX=1;exitY=0.5;exitDx=0;exitDy=0;endArrow=none;endFill=0;fillColor=#f8cecc;strokeColor=#b85450;" parent="ir1PRDTtGvgjBWMgFl4q-1" source="IEtz67zzkuUhbgyWgrqV-5" edge="1">
          <mxGeometry x="0.4815" y="15" relative="1" as="geometry">
            <mxPoint x="754" y="110" as="targetPoint" />
            <mxPoint as="offset" />
          </mxGeometry>
        </mxCell>
        <mxCell id="IEtz67zzkuUhbgyWgrqV-5" value="Gérer" style="ellipse;whiteSpace=wrap;html=1;fillColor=#f8cecc;strokeColor=#b85450;" parent="ir1PRDTtGvgjBWMgFl4q-1" vertex="1">
          <mxGeometry x="580" y="80" width="120" height="60" as="geometry" />
        </mxCell>
        <mxCell id="IEtz67zzkuUhbgyWgrqV-7" value="0,1" style="edgeStyle=orthogonalEdgeStyle;rounded=0;orthogonalLoop=1;jettySize=auto;html=1;exitX=1;exitY=0.5;exitDx=0;exitDy=0;entryX=0;entryY=0.5;entryDx=0;entryDy=0;endArrow=none;endFill=0;fillColor=#fff2cc;strokeColor=#d6b656;" parent="ir1PRDTtGvgjBWMgFl4q-1" source="IEtz67zzkuUhbgyWgrqV-8" target="IEtz67zzkuUhbgyWgrqV-11" edge="1">
          <mxGeometry x="-0.5" y="15" relative="1" as="geometry">
            <mxPoint as="offset" />
          </mxGeometry>
        </mxCell>
        <mxCell id="IEtz67zzkuUhbgyWgrqV-8" value="News" style="rounded=0;whiteSpace=wrap;html=1;" parent="ir1PRDTtGvgjBWMgFl4q-1" vertex="1">
          <mxGeometry x="385" y="704" width="110" height="58" as="geometry" />
        </mxCell>
        <mxCell id="Yh0MuZpLJdci4y8NJo_1-4" value="0,n" style="edgeStyle=elbowEdgeStyle;rounded=0;orthogonalLoop=1;jettySize=auto;elbow=vertical;html=1;exitX=1;exitY=0.5;exitDx=0;exitDy=0;endArrow=none;endFill=0;fillColor=#fff2cc;strokeColor=#d6b656;" parent="ir1PRDTtGvgjBWMgFl4q-1" source="IEtz67zzkuUhbgyWgrqV-11" edge="1">
          <mxGeometry x="0.4815" y="15" relative="1" as="geometry">
            <mxPoint x="754" y="733" as="targetPoint" />
            <mxPoint as="offset" />
          </mxGeometry>
        </mxCell>
        <mxCell id="IEtz67zzkuUhbgyWgrqV-11" value="Gérer" style="ellipse;whiteSpace=wrap;html=1;fillColor=#fff2cc;strokeColor=#d6b656;" parent="ir1PRDTtGvgjBWMgFl4q-1" vertex="1">
          <mxGeometry x="580" y="703" width="120" height="60" as="geometry" />
        </mxCell>
        <mxCell id="Yh0MuZpLJdci4y8NJo_1-6" value="0,1" style="edgeStyle=orthogonalEdgeStyle;rounded=0;orthogonalLoop=1;jettySize=auto;html=1;exitX=1;exitY=0.5;exitDx=0;exitDy=0;entryX=0;entryY=0.5;entryDx=0;entryDy=0;endArrow=none;endFill=0;fillColor=#d5e8d4;strokeColor=#82b366;" parent="ir1PRDTtGvgjBWMgFl4q-1" source="Yh0MuZpLJdci4y8NJo_1-7" target="Yh0MuZpLJdci4y8NJo_1-12" edge="1">
          <mxGeometry x="-0.5" y="15" relative="1" as="geometry">
            <mxPoint as="offset" />
          </mxGeometry>
        </mxCell>
        <mxCell id="Yh0MuZpLJdci4y8NJo_1-7" value="Messages news" style="rounded=0;whiteSpace=wrap;html=1;" parent="ir1PRDTtGvgjBWMgFl4q-1" vertex="1">
          <mxGeometry x="385" y="776" width="110" height="58" as="geometry" />
        </mxCell>
        <mxCell id="Yh0MuZpLJdci4y8NJo_1-13" value="0,n" style="edgeStyle=elbowEdgeStyle;rounded=0;orthogonalLoop=1;jettySize=auto;elbow=vertical;html=1;exitX=1;exitY=0.5;exitDx=0;exitDy=0;endArrow=none;endFill=0;fillColor=#d5e8d4;strokeColor=#82b366;" parent="ir1PRDTtGvgjBWMgFl4q-1" source="Yh0MuZpLJdci4y8NJo_1-12" edge="1">
          <mxGeometry x="0.4815" y="15" relative="1" as="geometry">
            <mxPoint x="754" y="805" as="targetPoint" />
            <mxPoint as="offset" />
          </mxGeometry>
        </mxCell>
        <mxCell id="Yh0MuZpLJdci4y8NJo_1-12" value="Gérer" style="ellipse;whiteSpace=wrap;html=1;fillColor=#d5e8d4;strokeColor=#82b366;" parent="ir1PRDTtGvgjBWMgFl4q-1" vertex="1">
          <mxGeometry x="580" y="775" width="120" height="60" as="geometry" />
        </mxCell>
        <mxCell id="8LoNdRKf65lTUbJcNKsQ-3" value="0,N" style="edgeStyle=elbowEdgeStyle;rounded=0;orthogonalLoop=1;jettySize=auto;elbow=vertical;html=1;exitX=1;exitY=0.5;exitDx=0;exitDy=0;endArrow=none;endFill=0;fillColor=#d5e8d4;strokeColor=#82b366;" parent="ir1PRDTtGvgjBWMgFl4q-1" source="8LoNdRKf65lTUbJcNKsQ-2" edge="1">
          <mxGeometry y="10" relative="1" as="geometry">
            <mxPoint as="offset" />
            <mxPoint x="754" y="-820" as="targetPoint" />
          </mxGeometry>
        </mxCell>
        <mxCell id="8LoNdRKf65lTUbJcNKsQ-4" value="0,N" style="edgeStyle=elbowEdgeStyle;rounded=0;orthogonalLoop=1;jettySize=auto;html=1;exitX=0;exitY=0.5;exitDx=0;exitDy=0;endArrow=none;endFill=0;fillColor=#d5e8d4;strokeColor=#82b366;" parent="ir1PRDTtGvgjBWMgFl4q-1" source="8LoNdRKf65lTUbJcNKsQ-2" target="Ems-gmoL7VlaEz9lixsN-17" edge="1">
          <mxGeometry x="-0.4483" y="-10" relative="1" as="geometry">
            <Array as="points">
              <mxPoint x="480" y="-790" />
              <mxPoint x="428" y="-810" />
            </Array>
            <mxPoint as="offset" />
          </mxGeometry>
        </mxCell>
        <mxCell id="8LoNdRKf65lTUbJcNKsQ-2" value="Liker / Disliker" style="ellipse;whiteSpace=wrap;html=1;fillColor=#d5e8d4;strokeColor=#82b366;" parent="ir1PRDTtGvgjBWMgFl4q-1" vertex="1">
          <mxGeometry x="580" y="-850" width="120" height="60" as="geometry" />
        </mxCell>
        <mxCell id="8LoNdRKf65lTUbJcNKsQ-6" value="0,N" style="edgeStyle=elbowEdgeStyle;rounded=0;orthogonalLoop=1;jettySize=auto;html=1;exitX=0;exitY=0.5;exitDx=0;exitDy=0;endArrow=none;endFill=0;fillColor=#d5e8d4;strokeColor=#82b366;" parent="ir1PRDTtGvgjBWMgFl4q-1" source="8LoNdRKf65lTUbJcNKsQ-5" target="6xAeUnvmwOhO6haDIeZQ-65" edge="1">
          <mxGeometry x="0.9152" y="-11" relative="1" as="geometry">
            <Array as="points">
              <mxPoint x="440" y="-8.5" />
              <mxPoint x="421" y="30" />
            </Array>
            <mxPoint as="offset" />
          </mxGeometry>
        </mxCell>
        <mxCell id="8LoNdRKf65lTUbJcNKsQ-7" value="0,N" style="edgeStyle=elbowEdgeStyle;rounded=0;orthogonalLoop=1;jettySize=auto;html=1;exitX=1;exitY=0.5;exitDx=0;exitDy=0;endArrow=none;endFill=0;elbow=vertical;fillColor=#d5e8d4;strokeColor=#82b366;" parent="ir1PRDTtGvgjBWMgFl4q-1" source="8LoNdRKf65lTUbJcNKsQ-5" edge="1">
          <mxGeometry x="0.4815" y="10" relative="1" as="geometry">
            <mxPoint as="offset" />
            <mxPoint x="754" y="-30" as="targetPoint" />
          </mxGeometry>
        </mxCell>
        <mxCell id="8LoNdRKf65lTUbJcNKsQ-5" value="Liker / Disliker" style="ellipse;whiteSpace=wrap;html=1;fillColor=#d5e8d4;strokeColor=#82b366;" parent="ir1PRDTtGvgjBWMgFl4q-1" vertex="1">
          <mxGeometry x="580" y="-60" width="120" height="60" as="geometry" />
        </mxCell>
        <mxCell id="8LoNdRKf65lTUbJcNKsQ-15" value="0,N" style="edgeStyle=elbowEdgeStyle;rounded=0;orthogonalLoop=1;jettySize=auto;html=1;exitX=0;exitY=0.5;exitDx=0;exitDy=0;endArrow=none;endFill=0;fillColor=#d5e8d4;strokeColor=#82b366;" parent="ir1PRDTtGvgjBWMgFl4q-1" source="8LoNdRKf65lTUbJcNKsQ-14" target="IEtz67zzkuUhbgyWgrqV-8" edge="1">
          <mxGeometry x="0.8619" y="-10" relative="1" as="geometry">
            <Array as="points">
              <mxPoint x="440" y="683" />
            </Array>
            <mxPoint as="offset" />
          </mxGeometry>
        </mxCell>
        <mxCell id="8LoNdRKf65lTUbJcNKsQ-16" value="0,N" style="edgeStyle=elbowEdgeStyle;rounded=0;orthogonalLoop=1;jettySize=auto;elbow=vertical;html=1;exitX=1;exitY=0.5;exitDx=0;exitDy=0;endArrow=none;endFill=0;fillColor=#d5e8d4;strokeColor=#82b366;" parent="ir1PRDTtGvgjBWMgFl4q-1" source="8LoNdRKf65lTUbJcNKsQ-14" edge="1">
          <mxGeometry x="0.4727" y="12" relative="1" as="geometry">
            <mxPoint x="754" y="663" as="targetPoint" />
            <mxPoint x="1" as="offset" />
          </mxGeometry>
        </mxCell>
        <mxCell id="8LoNdRKf65lTUbJcNKsQ-14" value="Liker / Disliker" style="ellipse;whiteSpace=wrap;html=1;fillColor=#d5e8d4;strokeColor=#82b366;" parent="ir1PRDTtGvgjBWMgFl4q-1" vertex="1">
          <mxGeometry x="580" y="633" width="120" height="60" as="geometry" />
        </mxCell>
        <mxCell id="trzIwXk-E31uGHVcY20t-4" value="1,N" style="edgeStyle=elbowEdgeStyle;rounded=0;orthogonalLoop=1;jettySize=auto;html=1;exitX=0.5;exitY=1;exitDx=0;exitDy=0;endArrow=none;endFill=0;elbow=vertical;" parent="ir1PRDTtGvgjBWMgFl4q-1" source="trzIwXk-E31uGHVcY20t-2" target="6xAeUnvmwOhO6haDIeZQ-14" edge="1">
          <mxGeometry x="0.8826" y="11" relative="1" as="geometry">
            <Array as="points">
              <mxPoint x="350" y="-450" />
            </Array>
            <mxPoint y="1" as="offset" />
          </mxGeometry>
        </mxCell>
        <mxCell id="trzIwXk-E31uGHVcY20t-2" value="Contenir" style="ellipse;whiteSpace=wrap;html=1;" parent="ir1PRDTtGvgjBWMgFl4q-1" vertex="1">
          <mxGeometry x="250" y="-690" width="120" height="60" as="geometry" />
        </mxCell>
        <mxCell id="8hbHRMdL4e392WW7BAJC-1" value="0,N" style="edgeStyle=elbowEdgeStyle;rounded=0;orthogonalLoop=1;jettySize=auto;html=1;exitX=0.5;exitY=0;exitDx=0;exitDy=0;endArrow=none;endFill=0;elbow=vertical;" parent="ir1PRDTtGvgjBWMgFl4q-1" source="8hbHRMdL4e392WW7BAJC-0" target="Ems-gmoL7VlaEz9lixsN-17" edge="1">
          <mxGeometry x="0.8352" y="10" relative="1" as="geometry">
            <Array as="points">
              <mxPoint x="350" y="-740" />
            </Array>
            <mxPoint as="offset" />
          </mxGeometry>
        </mxCell>
        <mxCell id="8hbHRMdL4e392WW7BAJC-2" value="1,N" style="edgeStyle=elbowEdgeStyle;rounded=0;orthogonalLoop=1;jettySize=auto;html=1;exitX=0.5;exitY=1;exitDx=0;exitDy=0;endArrow=none;endFill=0;elbow=vertical;" parent="ir1PRDTtGvgjBWMgFl4q-1" source="8hbHRMdL4e392WW7BAJC-0" target="6xAeUnvmwOhO6haDIeZQ-22" edge="1">
          <mxGeometry x="0.8969" y="10" relative="1" as="geometry">
            <Array as="points">
              <mxPoint x="330" y="-400" />
            </Array>
            <mxPoint as="offset" />
          </mxGeometry>
        </mxCell>
        <mxCell id="8hbHRMdL4e392WW7BAJC-0" value="Contenir" style="ellipse;whiteSpace=wrap;html=1;" parent="ir1PRDTtGvgjBWMgFl4q-1" vertex="1">
          <mxGeometry x="170" y="-596" width="120" height="60" as="geometry" />
        </mxCell>
        <mxCell id="8hbHRMdL4e392WW7BAJC-5" value="0,N" style="edgeStyle=elbowEdgeStyle;rounded=0;orthogonalLoop=1;jettySize=auto;elbow=vertical;html=1;endArrow=none;endFill=0;entryX=0;entryY=0.5;entryDx=0;entryDy=0;" parent="ir1PRDTtGvgjBWMgFl4q-1" source="8hbHRMdL4e392WW7BAJC-4" target="6xAeUnvmwOhO6haDIeZQ-34" edge="1">
          <mxGeometry x="0.734" y="11" relative="1" as="geometry">
            <mxPoint as="offset" />
          </mxGeometry>
        </mxCell>
        <mxCell id="8hbHRMdL4e392WW7BAJC-6" value="1,1" style="edgeStyle=elbowEdgeStyle;rounded=0;orthogonalLoop=1;jettySize=auto;elbow=vertical;html=1;endArrow=none;endFill=0;entryX=0;entryY=0.75;entryDx=0;entryDy=0;" parent="ir1PRDTtGvgjBWMgFl4q-1" source="8hbHRMdL4e392WW7BAJC-4" target="6xAeUnvmwOhO6haDIeZQ-22" edge="1">
          <mxGeometry x="0.734" y="9" relative="1" as="geometry">
            <mxPoint as="offset" />
          </mxGeometry>
        </mxCell>
        <mxCell id="8hbHRMdL4e392WW7BAJC-4" value="Relier" style="ellipse;whiteSpace=wrap;html=1;" parent="ir1PRDTtGvgjBWMgFl4q-1" vertex="1">
          <mxGeometry x="170" y="-370" width="120" height="60" as="geometry" />
        </mxCell>
        <mxCell id="8hbHRMdL4e392WW7BAJC-11" value="0,N" style="edgeStyle=elbowEdgeStyle;rounded=0;orthogonalLoop=1;jettySize=auto;html=1;exitX=0.5;exitY=1;exitDx=0;exitDy=0;entryX=0;entryY=0.75;entryDx=0;entryDy=0;endArrow=none;endFill=0;" parent="ir1PRDTtGvgjBWMgFl4q-1" source="8hbHRMdL4e392WW7BAJC-8" target="6xAeUnvmwOhO6haDIeZQ-89" edge="1">
          <mxGeometry x="0.8319" y="14" relative="1" as="geometry">
            <Array as="points">
              <mxPoint x="220" y="390" />
            </Array>
            <mxPoint x="1" y="1" as="offset" />
          </mxGeometry>
        </mxCell>
        <mxCell id="8hbHRMdL4e392WW7BAJC-12" value="1,1" style="edgeStyle=elbowEdgeStyle;rounded=0;orthogonalLoop=1;jettySize=auto;html=1;exitX=0.5;exitY=0;exitDx=0;exitDy=0;entryX=0;entryY=0.25;entryDx=0;entryDy=0;endArrow=none;endFill=0;" parent="ir1PRDTtGvgjBWMgFl4q-1" source="8hbHRMdL4e392WW7BAJC-8" target="6xAeUnvmwOhO6haDIeZQ-80" edge="1">
          <mxGeometry x="0.8408" y="-14" relative="1" as="geometry">
            <Array as="points">
              <mxPoint x="220" y="321" />
            </Array>
            <mxPoint x="1" y="1" as="offset" />
          </mxGeometry>
        </mxCell>
        <mxCell id="8hbHRMdL4e392WW7BAJC-8" value="Contenir" style="ellipse;whiteSpace=wrap;html=1;" parent="ir1PRDTtGvgjBWMgFl4q-1" vertex="1">
          <mxGeometry x="160" y="330" width="120" height="60" as="geometry" />
        </mxCell>
        <mxCell id="8hbHRMdL4e392WW7BAJC-13" value="0,N" style="edgeStyle=elbowEdgeStyle;rounded=0;orthogonalLoop=1;jettySize=auto;html=1;exitX=0.5;exitY=1;exitDx=0;exitDy=0;entryX=0;entryY=0.75;entryDx=0;entryDy=0;endArrow=none;endFill=0;" parent="ir1PRDTtGvgjBWMgFl4q-1" source="8hbHRMdL4e392WW7BAJC-15" edge="1">
          <mxGeometry x="0.8319" y="14" relative="1" as="geometry">
            <mxPoint x="385" y="117" as="targetPoint" />
            <Array as="points">
              <mxPoint x="220" y="103.5" />
            </Array>
            <mxPoint x="1" y="1" as="offset" />
          </mxGeometry>
        </mxCell>
        <mxCell id="8hbHRMdL4e392WW7BAJC-14" value="1,1" style="edgeStyle=elbowEdgeStyle;rounded=0;orthogonalLoop=1;jettySize=auto;html=1;exitX=0.5;exitY=0;exitDx=0;exitDy=0;entryX=0;entryY=0.25;entryDx=0;entryDy=0;endArrow=none;endFill=0;" parent="ir1PRDTtGvgjBWMgFl4q-1" source="8hbHRMdL4e392WW7BAJC-15" edge="1">
          <mxGeometry x="0.8408" y="-14" relative="1" as="geometry">
            <mxPoint x="385" y="20" as="targetPoint" />
            <Array as="points">
              <mxPoint x="220" y="34.5" />
            </Array>
            <mxPoint x="1" y="1" as="offset" />
          </mxGeometry>
        </mxCell>
        <mxCell id="8hbHRMdL4e392WW7BAJC-15" value="Contenir" style="ellipse;whiteSpace=wrap;html=1;" parent="ir1PRDTtGvgjBWMgFl4q-1" vertex="1">
          <mxGeometry x="160" y="43.5" width="120" height="60" as="geometry" />
        </mxCell>
      </root>
    </mxGraphModel>
  </diagram>
  <diagram id="H8bKHD4NM_V3dPoCs85L" name="MCD 2">
    <mxGraphModel dx="960" dy="553" grid="1" gridSize="10" guides="1" tooltips="1" connect="1" arrows="1" fold="1" page="1" pageScale="1" pageWidth="827" pageHeight="1169" math="0" shadow="0">
      <root>
        <mxCell id="4GJZU7kqfkduw8SUz1hW-0" />
        <mxCell id="4GJZU7kqfkduw8SUz1hW-1" parent="4GJZU7kqfkduw8SUz1hW-0" />
        <mxCell id="7JfVVUhWFQAeKjySghQO-0" value="users" style="swimlane;fontStyle=0;childLayout=stackLayout;horizontal=1;startSize=26;horizontalStack=0;resizeParent=1;resizeParentMax=0;resizeLast=0;collapsible=1;marginBottom=0;align=center;fontSize=14;" parent="4GJZU7kqfkduw8SUz1hW-1" vertex="1">
          <mxGeometry x="350" y="210" width="160" height="356" as="geometry" />
        </mxCell>
        <mxCell id="7JfVVUhWFQAeKjySghQO-1" value="userId" style="text;strokeColor=none;fillColor=none;spacingLeft=4;spacingRight=4;overflow=hidden;rotatable=0;points=[[0,0.5],[1,0.5]];portConstraint=eastwest;fontSize=12;fontStyle=4" parent="7JfVVUhWFQAeKjySghQO-0" vertex="1">
          <mxGeometry y="26" width="160" height="30" as="geometry" />
        </mxCell>
        <mxCell id="7JfVVUhWFQAeKjySghQO-2" value="firstName" style="text;strokeColor=none;fillColor=none;spacingLeft=4;spacingRight=4;overflow=hidden;rotatable=0;points=[[0,0.5],[1,0.5]];portConstraint=eastwest;fontSize=12;" parent="7JfVVUhWFQAeKjySghQO-0" vertex="1">
          <mxGeometry y="56" width="160" height="30" as="geometry" />
        </mxCell>
        <mxCell id="7JfVVUhWFQAeKjySghQO-3" value="lastName" style="text;strokeColor=none;fillColor=none;spacingLeft=4;spacingRight=4;overflow=hidden;rotatable=0;points=[[0,0.5],[1,0.5]];portConstraint=eastwest;fontSize=12;" parent="7JfVVUhWFQAeKjySghQO-0" vertex="1">
          <mxGeometry y="86" width="160" height="30" as="geometry" />
        </mxCell>
        <mxCell id="wtHmufZdshZg7AS228tA-1" value="mail" style="text;strokeColor=none;fillColor=none;spacingLeft=4;spacingRight=4;overflow=hidden;rotatable=0;points=[[0,0.5],[1,0.5]];portConstraint=eastwest;fontSize=12;" vertex="1" parent="7JfVVUhWFQAeKjySghQO-0">
          <mxGeometry y="116" width="160" height="30" as="geometry" />
        </mxCell>
        <mxCell id="wtHmufZdshZg7AS228tA-15" value="password" style="text;strokeColor=none;fillColor=none;spacingLeft=4;spacingRight=4;overflow=hidden;rotatable=0;points=[[0,0.5],[1,0.5]];portConstraint=eastwest;fontSize=12;" vertex="1" parent="7JfVVUhWFQAeKjySghQO-0">
          <mxGeometry y="146" width="160" height="30" as="geometry" />
        </mxCell>
        <mxCell id="wtHmufZdshZg7AS228tA-2" value="birthDate" style="text;strokeColor=none;fillColor=none;spacingLeft=4;spacingRight=4;overflow=hidden;rotatable=0;points=[[0,0.5],[1,0.5]];portConstraint=eastwest;fontSize=12;" vertex="1" parent="7JfVVUhWFQAeKjySghQO-0">
          <mxGeometry y="176" width="160" height="30" as="geometry" />
        </mxCell>
        <mxCell id="wtHmufZdshZg7AS228tA-3" value="inscriptionDate" style="text;strokeColor=none;fillColor=none;spacingLeft=4;spacingRight=4;overflow=hidden;rotatable=0;points=[[0,0.5],[1,0.5]];portConstraint=eastwest;fontSize=12;" vertex="1" parent="7JfVVUhWFQAeKjySghQO-0">
          <mxGeometry y="206" width="160" height="30" as="geometry" />
        </mxCell>
        <mxCell id="wtHmufZdshZg7AS228tA-4" value="pseudo" style="text;strokeColor=none;fillColor=none;spacingLeft=4;spacingRight=4;overflow=hidden;rotatable=0;points=[[0,0.5],[1,0.5]];portConstraint=eastwest;fontSize=12;" vertex="1" parent="7JfVVUhWFQAeKjySghQO-0">
          <mxGeometry y="236" width="160" height="30" as="geometry" />
        </mxCell>
        <mxCell id="wtHmufZdshZg7AS228tA-5" value="image" style="text;strokeColor=none;fillColor=none;spacingLeft=4;spacingRight=4;overflow=hidden;rotatable=0;points=[[0,0.5],[1,0.5]];portConstraint=eastwest;fontSize=12;" vertex="1" parent="7JfVVUhWFQAeKjySghQO-0">
          <mxGeometry y="266" width="160" height="30" as="geometry" />
        </mxCell>
        <mxCell id="SJBm_Q9e91dTkQKq9xhE-15" value="points" style="text;strokeColor=none;fillColor=none;spacingLeft=4;spacingRight=4;overflow=hidden;rotatable=0;points=[[0,0.5],[1,0.5]];portConstraint=eastwest;fontSize=12;" vertex="1" parent="7JfVVUhWFQAeKjySghQO-0">
          <mxGeometry y="296" width="160" height="30" as="geometry" />
        </mxCell>
        <mxCell id="wtHmufZdshZg7AS228tA-6" value="roleId" style="text;strokeColor=none;fillColor=none;spacingLeft=4;spacingRight=4;overflow=hidden;rotatable=0;points=[[0,0.5],[1,0.5]];portConstraint=eastwest;fontSize=12;" vertex="1" parent="7JfVVUhWFQAeKjySghQO-0">
          <mxGeometry y="326" width="160" height="30" as="geometry" />
        </mxCell>
        <mxCell id="SJBm_Q9e91dTkQKq9xhE-0" value="role" style="swimlane;fontStyle=0;childLayout=stackLayout;horizontal=1;startSize=26;horizontalStack=0;resizeParent=1;resizeParentMax=0;resizeLast=0;collapsible=1;marginBottom=0;align=center;fontSize=14;" vertex="1" parent="4GJZU7kqfkduw8SUz1hW-1">
          <mxGeometry y="511" width="160" height="86" as="geometry" />
        </mxCell>
        <mxCell id="SJBm_Q9e91dTkQKq9xhE-1" value="roleId" style="text;strokeColor=none;fillColor=none;spacingLeft=4;spacingRight=4;overflow=hidden;rotatable=0;points=[[0,0.5],[1,0.5]];portConstraint=eastwest;fontSize=12;fontStyle=4" vertex="1" parent="SJBm_Q9e91dTkQKq9xhE-0">
          <mxGeometry y="26" width="160" height="30" as="geometry" />
        </mxCell>
        <mxCell id="SJBm_Q9e91dTkQKq9xhE-2" value="name" style="text;strokeColor=none;fillColor=none;spacingLeft=4;spacingRight=4;overflow=hidden;rotatable=0;points=[[0,0.5],[1,0.5]];portConstraint=eastwest;fontSize=12;" vertex="1" parent="SJBm_Q9e91dTkQKq9xhE-0">
          <mxGeometry y="56" width="160" height="30" as="geometry" />
        </mxCell>
        <mxCell id="SJBm_Q9e91dTkQKq9xhE-13" style="edgeStyle=none;rounded=0;orthogonalLoop=1;jettySize=auto;html=1;exitX=1;exitY=0.5;exitDx=0;exitDy=0;entryX=0;entryY=0.5;entryDx=0;entryDy=0;endArrow=none;endFill=0;" edge="1" parent="4GJZU7kqfkduw8SUz1hW-1" source="SJBm_Q9e91dTkQKq9xhE-11" target="wtHmufZdshZg7AS228tA-6">
          <mxGeometry relative="1" as="geometry" />
        </mxCell>
        <mxCell id="SJBm_Q9e91dTkQKq9xhE-14" style="edgeStyle=none;rounded=0;orthogonalLoop=1;jettySize=auto;html=1;exitX=0;exitY=0.5;exitDx=0;exitDy=0;entryX=1;entryY=0.5;entryDx=0;entryDy=0;endArrow=none;endFill=0;" edge="1" parent="4GJZU7kqfkduw8SUz1hW-1" source="SJBm_Q9e91dTkQKq9xhE-11" target="SJBm_Q9e91dTkQKq9xhE-1">
          <mxGeometry relative="1" as="geometry" />
        </mxCell>
        <mxCell id="SJBm_Q9e91dTkQKq9xhE-11" value="&lt;div&gt;Posséder&lt;/div&gt;&lt;div&gt;&lt;br&gt;&lt;/div&gt;&lt;div&gt;roleId&lt;br&gt;&lt;/div&gt;" style="ellipse;whiteSpace=wrap;html=1;" vertex="1" parent="4GJZU7kqfkduw8SUz1hW-1">
          <mxGeometry x="200" y="511" width="120" height="80" as="geometry" />
        </mxCell>
        <mxCell id="SJBm_Q9e91dTkQKq9xhE-12" style="rounded=0;orthogonalLoop=1;jettySize=auto;html=1;exitX=0;exitY=0.5;exitDx=0;exitDy=0;entryX=1;entryY=0.5;entryDx=0;entryDy=0;endArrow=none;endFill=0;" edge="1" parent="4GJZU7kqfkduw8SUz1hW-1" source="SJBm_Q9e91dTkQKq9xhE-11" target="SJBm_Q9e91dTkQKq9xhE-11">
          <mxGeometry relative="1" as="geometry" />
        </mxCell>
        <mxCell id="SJBm_Q9e91dTkQKq9xhE-16" value="palierPoints" style="swimlane;fontStyle=0;childLayout=stackLayout;horizontal=1;startSize=26;horizontalStack=0;resizeParent=1;resizeParentMax=0;resizeLast=0;collapsible=1;marginBottom=0;align=center;fontSize=14;" vertex="1" parent="4GJZU7kqfkduw8SUz1hW-1">
          <mxGeometry x="550" y="210" width="160" height="146" as="geometry" />
        </mxCell>
        <mxCell id="SJBm_Q9e91dTkQKq9xhE-17" value="palierId" style="text;strokeColor=none;fillColor=none;spacingLeft=4;spacingRight=4;overflow=hidden;rotatable=0;points=[[0,0.5],[1,0.5]];portConstraint=eastwest;fontSize=12;fontStyle=4" vertex="1" parent="SJBm_Q9e91dTkQKq9xhE-16">
          <mxGeometry y="26" width="160" height="30" as="geometry" />
        </mxCell>
        <mxCell id="SJBm_Q9e91dTkQKq9xhE-18" value="description" style="text;strokeColor=none;fillColor=none;spacingLeft=4;spacingRight=4;overflow=hidden;rotatable=0;points=[[0,0.5],[1,0.5]];portConstraint=eastwest;fontSize=12;" vertex="1" parent="SJBm_Q9e91dTkQKq9xhE-16">
          <mxGeometry y="56" width="160" height="30" as="geometry" />
        </mxCell>
        <mxCell id="SJBm_Q9e91dTkQKq9xhE-44" value="nbPoints" style="text;strokeColor=none;fillColor=none;spacingLeft=4;spacingRight=4;overflow=hidden;rotatable=0;points=[[0,0.5],[1,0.5]];portConstraint=eastwest;fontSize=12;" vertex="1" parent="SJBm_Q9e91dTkQKq9xhE-16">
          <mxGeometry y="86" width="160" height="30" as="geometry" />
        </mxCell>
        <mxCell id="SJBm_Q9e91dTkQKq9xhE-28" value="promoId" style="text;strokeColor=none;fillColor=none;spacingLeft=4;spacingRight=4;overflow=hidden;rotatable=0;points=[[0,0.5],[1,0.5]];portConstraint=eastwest;fontSize=12;" vertex="1" parent="SJBm_Q9e91dTkQKq9xhE-16">
          <mxGeometry y="116" width="160" height="30" as="geometry" />
        </mxCell>
      </root>
    </mxGraphModel>
  </diagram>
  <diagram id="4inVsMtcz0jLxbzbqwaM" name="MPD">
    <mxGraphModel dx="1086" dy="869" grid="1" gridSize="10" guides="1" tooltips="1" connect="1" arrows="1" fold="1" page="1" pageScale="1" pageWidth="827" pageHeight="1169" math="0" shadow="0">
      <root>
        <mxCell id="FiYCVyUWgql_Hfni7Tig-0" />
        <mxCell id="FiYCVyUWgql_Hfni7Tig-1" parent="FiYCVyUWgql_Hfni7Tig-0" />
      </root>
    </mxGraphModel>
  </diagram>
  <diagram id="bkpsSc6JMUtNRwOexuPE" name="SiteMap">
    <mxGraphModel dx="946" dy="662" grid="1" gridSize="10" guides="1" tooltips="1" connect="1" arrows="1" fold="1" page="1" pageScale="1" pageWidth="827" pageHeight="1169" math="0" shadow="0">
      <root>
        <mxCell id="yjC3ri-hcoDWxH1MKi11-0" />
        <mxCell id="yjC3ri-hcoDWxH1MKi11-1" parent="yjC3ri-hcoDWxH1MKi11-0" />
        <mxCell id="yjC3ri-hcoDWxH1MKi11-33" value="" style="group" parent="yjC3ri-hcoDWxH1MKi11-1" vertex="1" connectable="0">
          <mxGeometry x="900" y="40" width="536" height="60" as="geometry" />
        </mxCell>
        <mxCell id="yjC3ri-hcoDWxH1MKi11-10" value="Site" style="rounded=0;whiteSpace=wrap;html=1;" parent="yjC3ri-hcoDWxH1MKi11-33" vertex="1">
          <mxGeometry width="120" height="60" as="geometry" />
        </mxCell>
        <mxCell id="yjC3ri-hcoDWxH1MKi11-30" value="Inscription" style="rounded=0;whiteSpace=wrap;html=1;" parent="yjC3ri-hcoDWxH1MKi11-33" vertex="1">
          <mxGeometry x="276" width="120" height="60" as="geometry" />
        </mxCell>
        <mxCell id="yjC3ri-hcoDWxH1MKi11-31" value="Connexion" style="rounded=0;whiteSpace=wrap;html=1;" parent="yjC3ri-hcoDWxH1MKi11-33" vertex="1">
          <mxGeometry x="136" width="120" height="60" as="geometry" />
        </mxCell>
        <mxCell id="yjC3ri-hcoDWxH1MKi11-32" value="Profil" style="rounded=0;whiteSpace=wrap;html=1;" parent="yjC3ri-hcoDWxH1MKi11-33" vertex="1">
          <mxGeometry x="416" width="120" height="60" as="geometry" />
        </mxCell>
        <mxCell id="yjC3ri-hcoDWxH1MKi11-93" style="edgeStyle=elbowEdgeStyle;rounded=1;orthogonalLoop=1;jettySize=auto;html=1;exitX=0.5;exitY=1;exitDx=0;exitDy=0;entryX=0;entryY=0.5;entryDx=0;entryDy=0;endArrow=none;endFill=0;" parent="yjC3ri-hcoDWxH1MKi11-1" source="yjC3ri-hcoDWxH1MKi11-34" target="yjC3ri-hcoDWxH1MKi11-39" edge="1">
          <mxGeometry relative="1" as="geometry">
            <Array as="points">
              <mxPoint x="200" y="310" />
            </Array>
          </mxGeometry>
        </mxCell>
        <mxCell id="yjC3ri-hcoDWxH1MKi11-94" style="edgeStyle=elbowEdgeStyle;rounded=1;orthogonalLoop=1;jettySize=auto;html=1;exitX=0.5;exitY=1;exitDx=0;exitDy=0;entryX=0;entryY=0.5;entryDx=0;entryDy=0;endArrow=none;endFill=0;" parent="yjC3ri-hcoDWxH1MKi11-1" source="yjC3ri-hcoDWxH1MKi11-34" target="yjC3ri-hcoDWxH1MKi11-40" edge="1">
          <mxGeometry relative="1" as="geometry">
            <Array as="points">
              <mxPoint x="200" y="360" />
            </Array>
          </mxGeometry>
        </mxCell>
        <mxCell id="yjC3ri-hcoDWxH1MKi11-95" style="edgeStyle=elbowEdgeStyle;rounded=1;orthogonalLoop=1;jettySize=auto;html=1;exitX=0.5;exitY=1;exitDx=0;exitDy=0;entryX=0;entryY=0.5;entryDx=0;entryDy=0;endArrow=none;endFill=0;" parent="yjC3ri-hcoDWxH1MKi11-1" source="yjC3ri-hcoDWxH1MKi11-34" target="yjC3ri-hcoDWxH1MKi11-41" edge="1">
          <mxGeometry relative="1" as="geometry">
            <Array as="points">
              <mxPoint x="200" y="440" />
              <mxPoint x="210" y="440" />
            </Array>
          </mxGeometry>
        </mxCell>
        <mxCell id="yjC3ri-hcoDWxH1MKi11-96" style="edgeStyle=elbowEdgeStyle;rounded=1;orthogonalLoop=1;jettySize=auto;html=1;exitX=0.5;exitY=1;exitDx=0;exitDy=0;entryX=0;entryY=0.5;entryDx=0;entryDy=0;endArrow=none;endFill=0;" parent="yjC3ri-hcoDWxH1MKi11-1" source="yjC3ri-hcoDWxH1MKi11-34" target="yjC3ri-hcoDWxH1MKi11-42" edge="1">
          <mxGeometry relative="1" as="geometry">
            <Array as="points">
              <mxPoint x="200" y="490" />
            </Array>
          </mxGeometry>
        </mxCell>
        <mxCell id="yjC3ri-hcoDWxH1MKi11-97" style="edgeStyle=elbowEdgeStyle;rounded=1;orthogonalLoop=1;jettySize=auto;html=1;exitX=0.5;exitY=1;exitDx=0;exitDy=0;entryX=0;entryY=0.5;entryDx=0;entryDy=0;endArrow=none;endFill=0;" parent="yjC3ri-hcoDWxH1MKi11-1" source="yjC3ri-hcoDWxH1MKi11-34" target="yjC3ri-hcoDWxH1MKi11-43" edge="1">
          <mxGeometry relative="1" as="geometry">
            <Array as="points">
              <mxPoint x="200" y="580" />
            </Array>
          </mxGeometry>
        </mxCell>
        <mxCell id="yjC3ri-hcoDWxH1MKi11-98" style="edgeStyle=elbowEdgeStyle;rounded=1;orthogonalLoop=1;jettySize=auto;html=1;exitX=0.5;exitY=1;exitDx=0;exitDy=0;entryX=0;entryY=0.5;entryDx=0;entryDy=0;endArrow=none;endFill=0;" parent="yjC3ri-hcoDWxH1MKi11-1" source="yjC3ri-hcoDWxH1MKi11-34" target="yjC3ri-hcoDWxH1MKi11-44" edge="1">
          <mxGeometry relative="1" as="geometry">
            <Array as="points">
              <mxPoint x="200" y="660" />
            </Array>
          </mxGeometry>
        </mxCell>
        <mxCell id="yjC3ri-hcoDWxH1MKi11-99" style="edgeStyle=elbowEdgeStyle;orthogonalLoop=1;jettySize=auto;html=1;exitX=0.5;exitY=1;exitDx=0;exitDy=0;entryX=0;entryY=0.5;entryDx=0;entryDy=0;endArrow=none;endFill=0;rounded=1;" parent="yjC3ri-hcoDWxH1MKi11-1" source="yjC3ri-hcoDWxH1MKi11-34" target="yjC3ri-hcoDWxH1MKi11-45" edge="1">
          <mxGeometry relative="1" as="geometry">
            <Array as="points">
              <mxPoint x="200" y="710" />
            </Array>
          </mxGeometry>
        </mxCell>
        <mxCell id="yjC3ri-hcoDWxH1MKi11-34" value="Accueil" style="rounded=0;whiteSpace=wrap;html=1;allowArrows=1;" parent="yjC3ri-hcoDWxH1MKi11-1" vertex="1">
          <mxGeometry x="140" y="220" width="120" height="60" as="geometry" />
        </mxCell>
        <mxCell id="yjC3ri-hcoDWxH1MKi11-39" value="Module Présentation top Produits" style="rounded=0;whiteSpace=wrap;html=1;" parent="yjC3ri-hcoDWxH1MKi11-1" vertex="1">
          <mxGeometry x="240" y="290" width="120" height="60" as="geometry" />
        </mxCell>
        <mxCell id="yjC3ri-hcoDWxH1MKi11-40" value="&lt;span style=&quot;color: rgb(0 , 0 , 0) ; font-family: &amp;#34;helvetica&amp;#34; ; font-size: 12px ; font-style: normal ; font-weight: 400 ; letter-spacing: normal ; text-align: center ; text-indent: 0px ; text-transform: none ; word-spacing: 0px ; background-color: rgb(248 , 249 , 250) ; display: inline ; float: none&quot;&gt;Module News&lt;/span&gt;" style="rounded=0;whiteSpace=wrap;html=1;" parent="yjC3ri-hcoDWxH1MKi11-1" vertex="1">
          <mxGeometry x="240" y="360" width="120" height="60" as="geometry" />
        </mxCell>
        <mxCell id="yjC3ri-hcoDWxH1MKi11-41" value="Module Utilisateur" style="rounded=0;whiteSpace=wrap;html=1;" parent="yjC3ri-hcoDWxH1MKi11-1" vertex="1">
          <mxGeometry x="240" y="430" width="120" height="60" as="geometry" />
        </mxCell>
        <mxCell id="yjC3ri-hcoDWxH1MKi11-42" value="Module Home page" style="rounded=0;whiteSpace=wrap;html=1;" parent="yjC3ri-hcoDWxH1MKi11-1" vertex="1">
          <mxGeometry x="240" y="500" width="120" height="60" as="geometry" />
        </mxCell>
        <mxCell id="yjC3ri-hcoDWxH1MKi11-43" value="Module Twitter" style="rounded=0;whiteSpace=wrap;html=1;" parent="yjC3ri-hcoDWxH1MKi11-1" vertex="1">
          <mxGeometry x="240" y="570" width="120" height="60" as="geometry" />
        </mxCell>
        <mxCell id="yjC3ri-hcoDWxH1MKi11-44" value="Module Facebook" style="rounded=0;whiteSpace=wrap;html=1;" parent="yjC3ri-hcoDWxH1MKi11-1" vertex="1">
          <mxGeometry x="240" y="640" width="120" height="60" as="geometry" />
        </mxCell>
        <mxCell id="yjC3ri-hcoDWxH1MKi11-45" value="Module Forum" style="rounded=0;whiteSpace=wrap;html=1;" parent="yjC3ri-hcoDWxH1MKi11-1" vertex="1">
          <mxGeometry x="240" y="710" width="120" height="60" as="geometry" />
        </mxCell>
        <mxCell id="yjC3ri-hcoDWxH1MKi11-100" style="edgeStyle=elbowEdgeStyle;rounded=1;orthogonalLoop=1;jettySize=auto;html=1;exitX=0.5;exitY=1;exitDx=0;exitDy=0;entryX=0;entryY=0.5;entryDx=0;entryDy=0;endArrow=none;endFill=0;" parent="yjC3ri-hcoDWxH1MKi11-1" source="yjC3ri-hcoDWxH1MKi11-53" target="yjC3ri-hcoDWxH1MKi11-55" edge="1">
          <mxGeometry relative="1" as="geometry">
            <Array as="points">
              <mxPoint x="460" y="300" />
            </Array>
          </mxGeometry>
        </mxCell>
        <mxCell id="yjC3ri-hcoDWxH1MKi11-101" style="edgeStyle=elbowEdgeStyle;rounded=1;orthogonalLoop=1;jettySize=auto;html=1;exitX=0.5;exitY=1;exitDx=0;exitDy=0;entryX=0;entryY=0.5;entryDx=0;entryDy=0;endArrow=none;endFill=0;" parent="yjC3ri-hcoDWxH1MKi11-1" source="yjC3ri-hcoDWxH1MKi11-53" target="yjC3ri-hcoDWxH1MKi11-57" edge="1">
          <mxGeometry relative="1" as="geometry">
            <Array as="points">
              <mxPoint x="460" y="340" />
            </Array>
          </mxGeometry>
        </mxCell>
        <mxCell id="yjC3ri-hcoDWxH1MKi11-53" value="Vidéos" style="rounded=0;whiteSpace=wrap;html=1;allowArrows=1;" parent="yjC3ri-hcoDWxH1MKi11-1" vertex="1">
          <mxGeometry x="400" y="220" width="120" height="60" as="geometry" />
        </mxCell>
        <mxCell id="yjC3ri-hcoDWxH1MKi11-55" value="Module Call to action" style="rounded=0;whiteSpace=wrap;html=1;" parent="yjC3ri-hcoDWxH1MKi11-1" vertex="1">
          <mxGeometry x="500" y="290" width="120" height="60" as="geometry" />
        </mxCell>
        <mxCell id="yjC3ri-hcoDWxH1MKi11-57" value="Module Hot News" style="rounded=0;whiteSpace=wrap;html=1;" parent="yjC3ri-hcoDWxH1MKi11-1" vertex="1">
          <mxGeometry x="500" y="360" width="120" height="60" as="geometry" />
        </mxCell>
        <mxCell id="yjC3ri-hcoDWxH1MKi11-102" style="edgeStyle=elbowEdgeStyle;rounded=1;orthogonalLoop=1;jettySize=auto;html=1;exitX=0.5;exitY=1;exitDx=0;exitDy=0;entryX=0;entryY=0.5;entryDx=0;entryDy=0;endArrow=none;endFill=0;" parent="yjC3ri-hcoDWxH1MKi11-1" source="yjC3ri-hcoDWxH1MKi11-59" target="yjC3ri-hcoDWxH1MKi11-61" edge="1">
          <mxGeometry relative="1" as="geometry">
            <Array as="points">
              <mxPoint x="720" y="310" />
            </Array>
          </mxGeometry>
        </mxCell>
        <mxCell id="yjC3ri-hcoDWxH1MKi11-104" style="edgeStyle=elbowEdgeStyle;rounded=1;orthogonalLoop=1;jettySize=auto;html=1;exitX=0.5;exitY=1;exitDx=0;exitDy=0;entryX=0;entryY=0.5;entryDx=0;entryDy=0;endArrow=none;endFill=0;" parent="yjC3ri-hcoDWxH1MKi11-1" source="yjC3ri-hcoDWxH1MKi11-59" target="yjC3ri-hcoDWxH1MKi11-63" edge="1">
          <mxGeometry relative="1" as="geometry">
            <Array as="points">
              <mxPoint x="720" y="370" />
            </Array>
          </mxGeometry>
        </mxCell>
        <mxCell id="yjC3ri-hcoDWxH1MKi11-105" style="edgeStyle=elbowEdgeStyle;rounded=1;orthogonalLoop=1;jettySize=auto;html=1;exitX=0.5;exitY=1;exitDx=0;exitDy=0;entryX=0;entryY=0.5;entryDx=0;entryDy=0;endArrow=none;endFill=0;" parent="yjC3ri-hcoDWxH1MKi11-1" source="yjC3ri-hcoDWxH1MKi11-59" target="yjC3ri-hcoDWxH1MKi11-67" edge="1">
          <mxGeometry relative="1" as="geometry">
            <Array as="points">
              <mxPoint x="720" y="410" />
            </Array>
          </mxGeometry>
        </mxCell>
        <mxCell id="yjC3ri-hcoDWxH1MKi11-59" value="News" style="rounded=0;whiteSpace=wrap;html=1;allowArrows=1;" parent="yjC3ri-hcoDWxH1MKi11-1" vertex="1">
          <mxGeometry x="660" y="220" width="120" height="60" as="geometry" />
        </mxCell>
        <mxCell id="yjC3ri-hcoDWxH1MKi11-103" style="edgeStyle=elbowEdgeStyle;rounded=1;orthogonalLoop=1;jettySize=auto;html=1;exitX=0.5;exitY=1;exitDx=0;exitDy=0;entryX=0;entryY=0.5;entryDx=0;entryDy=0;endArrow=none;endFill=0;" parent="yjC3ri-hcoDWxH1MKi11-1" source="yjC3ri-hcoDWxH1MKi11-61" target="yjC3ri-hcoDWxH1MKi11-62" edge="1">
          <mxGeometry relative="1" as="geometry">
            <Array as="points">
              <mxPoint x="820" y="370" />
            </Array>
          </mxGeometry>
        </mxCell>
        <mxCell id="yjC3ri-hcoDWxH1MKi11-61" value="Module Hot News" style="rounded=0;whiteSpace=wrap;html=1;" parent="yjC3ri-hcoDWxH1MKi11-1" vertex="1">
          <mxGeometry x="760" y="290" width="120" height="60" as="geometry" />
        </mxCell>
        <mxCell id="yjC3ri-hcoDWxH1MKi11-62" value="Redirection vers un Média (lecture)" style="rounded=0;whiteSpace=wrap;html=1;" parent="yjC3ri-hcoDWxH1MKi11-1" vertex="1">
          <mxGeometry x="860" y="360" width="120" height="60" as="geometry" />
        </mxCell>
        <mxCell id="yjC3ri-hcoDWxH1MKi11-63" value="Module Twitter" style="rounded=0;whiteSpace=wrap;html=1;" parent="yjC3ri-hcoDWxH1MKi11-1" vertex="1">
          <mxGeometry x="760" y="430" width="120" height="60" as="geometry" />
        </mxCell>
        <mxCell id="yjC3ri-hcoDWxH1MKi11-67" value="Module Facebook" style="rounded=0;whiteSpace=wrap;html=1;" parent="yjC3ri-hcoDWxH1MKi11-1" vertex="1">
          <mxGeometry x="760" y="500" width="120" height="60" as="geometry" />
        </mxCell>
        <mxCell id="yjC3ri-hcoDWxH1MKi11-106" style="edgeStyle=elbowEdgeStyle;rounded=1;orthogonalLoop=1;jettySize=auto;html=1;exitX=0.5;exitY=1;exitDx=0;exitDy=0;entryX=0;entryY=0.5;entryDx=0;entryDy=0;endArrow=none;endFill=0;" parent="yjC3ri-hcoDWxH1MKi11-1" source="yjC3ri-hcoDWxH1MKi11-69" target="yjC3ri-hcoDWxH1MKi11-71" edge="1">
          <mxGeometry relative="1" as="geometry">
            <Array as="points">
              <mxPoint x="1080" y="300" />
            </Array>
          </mxGeometry>
        </mxCell>
        <mxCell id="yjC3ri-hcoDWxH1MKi11-107" style="edgeStyle=elbowEdgeStyle;rounded=1;orthogonalLoop=1;jettySize=auto;html=1;entryX=0;entryY=0.5;entryDx=0;entryDy=0;endArrow=none;endFill=0;exitX=0.5;exitY=1;exitDx=0;exitDy=0;" parent="yjC3ri-hcoDWxH1MKi11-1" source="yjC3ri-hcoDWxH1MKi11-69" target="yjC3ri-hcoDWxH1MKi11-72" edge="1">
          <mxGeometry relative="1" as="geometry">
            <mxPoint x="1090" y="430" as="sourcePoint" />
            <Array as="points">
              <mxPoint x="1080" y="340" />
            </Array>
          </mxGeometry>
        </mxCell>
        <mxCell id="yjC3ri-hcoDWxH1MKi11-108" style="edgeStyle=elbowEdgeStyle;rounded=1;orthogonalLoop=1;jettySize=auto;html=1;exitX=0.5;exitY=1;exitDx=0;exitDy=0;entryX=0;entryY=0.5;entryDx=0;entryDy=0;endArrow=none;endFill=0;" parent="yjC3ri-hcoDWxH1MKi11-1" source="yjC3ri-hcoDWxH1MKi11-69" target="yjC3ri-hcoDWxH1MKi11-73" edge="1">
          <mxGeometry relative="1" as="geometry">
            <Array as="points">
              <mxPoint x="1080" y="370" />
            </Array>
          </mxGeometry>
        </mxCell>
        <mxCell id="yjC3ri-hcoDWxH1MKi11-69" value="Utilisateurs" style="rounded=0;whiteSpace=wrap;html=1;allowArrows=1;" parent="yjC3ri-hcoDWxH1MKi11-1" vertex="1">
          <mxGeometry x="1020" y="220" width="120" height="60" as="geometry" />
        </mxCell>
        <mxCell id="yjC3ri-hcoDWxH1MKi11-71" value="Module Hot News" style="rounded=0;whiteSpace=wrap;html=1;" parent="yjC3ri-hcoDWxH1MKi11-1" vertex="1">
          <mxGeometry x="1120" y="290" width="120" height="60" as="geometry" />
        </mxCell>
        <mxCell id="yjC3ri-hcoDWxH1MKi11-72" value="Module de Fidélité" style="rounded=0;whiteSpace=wrap;html=1;" parent="yjC3ri-hcoDWxH1MKi11-1" vertex="1">
          <mxGeometry x="1120" y="360" width="120" height="60" as="geometry" />
        </mxCell>
        <mxCell id="yjC3ri-hcoDWxH1MKi11-73" value="Module Facebook" style="rounded=0;whiteSpace=wrap;html=1;" parent="yjC3ri-hcoDWxH1MKi11-1" vertex="1">
          <mxGeometry x="1120" y="430" width="120" height="60" as="geometry" />
        </mxCell>
        <mxCell id="yjC3ri-hcoDWxH1MKi11-109" style="edgeStyle=elbowEdgeStyle;rounded=1;orthogonalLoop=1;jettySize=auto;html=1;exitX=0.5;exitY=1;exitDx=0;exitDy=0;entryX=0;entryY=0.5;entryDx=0;entryDy=0;endArrow=none;endFill=0;" parent="yjC3ri-hcoDWxH1MKi11-1" source="yjC3ri-hcoDWxH1MKi11-76" target="yjC3ri-hcoDWxH1MKi11-77" edge="1">
          <mxGeometry relative="1" as="geometry">
            <Array as="points">
              <mxPoint x="1340" y="300" />
            </Array>
          </mxGeometry>
        </mxCell>
        <mxCell id="yjC3ri-hcoDWxH1MKi11-110" style="edgeStyle=elbowEdgeStyle;rounded=1;orthogonalLoop=1;jettySize=auto;html=1;exitX=0.5;exitY=1;exitDx=0;exitDy=0;entryX=0;entryY=0.5;entryDx=0;entryDy=0;endArrow=none;endFill=0;" parent="yjC3ri-hcoDWxH1MKi11-1" source="yjC3ri-hcoDWxH1MKi11-76" target="yjC3ri-hcoDWxH1MKi11-78" edge="1">
          <mxGeometry relative="1" as="geometry">
            <Array as="points">
              <mxPoint x="1340" y="340" />
            </Array>
          </mxGeometry>
        </mxCell>
        <mxCell id="yjC3ri-hcoDWxH1MKi11-76" value="Live" style="rounded=0;whiteSpace=wrap;html=1;allowArrows=1;" parent="yjC3ri-hcoDWxH1MKi11-1" vertex="1">
          <mxGeometry x="1280" y="220" width="120" height="60" as="geometry" />
        </mxCell>
        <mxCell id="yjC3ri-hcoDWxH1MKi11-77" value="Flux Live" style="rounded=0;whiteSpace=wrap;html=1;" parent="yjC3ri-hcoDWxH1MKi11-1" vertex="1">
          <mxGeometry x="1380" y="290" width="120" height="60" as="geometry" />
        </mxCell>
        <mxCell id="yjC3ri-hcoDWxH1MKi11-78" value="Module Commentaires =&amp;gt; Facebook / Twitter" style="rounded=0;whiteSpace=wrap;html=1;" parent="yjC3ri-hcoDWxH1MKi11-1" vertex="1">
          <mxGeometry x="1380" y="360" width="120" height="60" as="geometry" />
        </mxCell>
        <mxCell id="yjC3ri-hcoDWxH1MKi11-111" style="edgeStyle=elbowEdgeStyle;rounded=1;orthogonalLoop=1;jettySize=auto;html=1;exitX=0.5;exitY=1;exitDx=0;exitDy=0;entryX=0;entryY=0.5;entryDx=0;entryDy=0;endArrow=none;endFill=0;" parent="yjC3ri-hcoDWxH1MKi11-1" source="yjC3ri-hcoDWxH1MKi11-79" target="yjC3ri-hcoDWxH1MKi11-80" edge="1">
          <mxGeometry relative="1" as="geometry">
            <Array as="points">
              <mxPoint x="1600" y="300" />
            </Array>
          </mxGeometry>
        </mxCell>
        <mxCell id="yjC3ri-hcoDWxH1MKi11-113" style="edgeStyle=elbowEdgeStyle;rounded=1;orthogonalLoop=1;jettySize=auto;html=1;exitX=0.5;exitY=1;exitDx=0;exitDy=0;entryX=0;entryY=0.5;entryDx=0;entryDy=0;endArrow=none;endFill=0;" parent="yjC3ri-hcoDWxH1MKi11-1" source="yjC3ri-hcoDWxH1MKi11-79" target="yjC3ri-hcoDWxH1MKi11-82" edge="1">
          <mxGeometry relative="1" as="geometry">
            <Array as="points">
              <mxPoint x="1600" y="370" />
            </Array>
          </mxGeometry>
        </mxCell>
        <mxCell id="yjC3ri-hcoDWxH1MKi11-115" style="edgeStyle=elbowEdgeStyle;rounded=1;orthogonalLoop=1;jettySize=auto;html=1;exitX=0.5;exitY=1;exitDx=0;exitDy=0;entryX=0;entryY=0.5;entryDx=0;entryDy=0;endArrow=none;endFill=0;" parent="yjC3ri-hcoDWxH1MKi11-1" source="yjC3ri-hcoDWxH1MKi11-79" target="yjC3ri-hcoDWxH1MKi11-84" edge="1">
          <mxGeometry relative="1" as="geometry">
            <Array as="points">
              <mxPoint x="1600" y="350" />
            </Array>
          </mxGeometry>
        </mxCell>
        <mxCell id="yjC3ri-hcoDWxH1MKi11-117" style="edgeStyle=elbowEdgeStyle;rounded=1;orthogonalLoop=1;jettySize=auto;html=1;exitX=0.5;exitY=1;exitDx=0;exitDy=0;entryX=0;entryY=0.5;entryDx=0;entryDy=0;endArrow=none;endFill=0;" parent="yjC3ri-hcoDWxH1MKi11-1" source="yjC3ri-hcoDWxH1MKi11-79" target="yjC3ri-hcoDWxH1MKi11-86" edge="1">
          <mxGeometry relative="1" as="geometry">
            <Array as="points">
              <mxPoint x="1600" y="360" />
            </Array>
          </mxGeometry>
        </mxCell>
        <mxCell id="yjC3ri-hcoDWxH1MKi11-79" value="Forum" style="rounded=0;whiteSpace=wrap;html=1;allowArrows=1;" parent="yjC3ri-hcoDWxH1MKi11-1" vertex="1">
          <mxGeometry x="1540" y="220" width="120" height="60" as="geometry" />
        </mxCell>
        <mxCell id="yjC3ri-hcoDWxH1MKi11-112" style="edgeStyle=elbowEdgeStyle;rounded=1;orthogonalLoop=1;jettySize=auto;html=1;exitX=0.5;exitY=1;exitDx=0;exitDy=0;entryX=0;entryY=0.5;entryDx=0;entryDy=0;endArrow=none;endFill=0;" parent="yjC3ri-hcoDWxH1MKi11-1" source="yjC3ri-hcoDWxH1MKi11-80" target="yjC3ri-hcoDWxH1MKi11-81" edge="1">
          <mxGeometry relative="1" as="geometry">
            <Array as="points">
              <mxPoint x="1700" y="370" />
            </Array>
          </mxGeometry>
        </mxCell>
        <mxCell id="yjC3ri-hcoDWxH1MKi11-80" value="Vidéos&lt;br&gt;(Sujets automatiques)" style="rounded=0;whiteSpace=wrap;html=1;" parent="yjC3ri-hcoDWxH1MKi11-1" vertex="1">
          <mxGeometry x="1640" y="290" width="120" height="60" as="geometry" />
        </mxCell>
        <mxCell id="yjC3ri-hcoDWxH1MKi11-81" value="Statistiques" style="rounded=0;whiteSpace=wrap;html=1;" parent="yjC3ri-hcoDWxH1MKi11-1" vertex="1">
          <mxGeometry x="1740" y="360" width="120" height="60" as="geometry" />
        </mxCell>
        <mxCell id="yjC3ri-hcoDWxH1MKi11-114" style="edgeStyle=elbowEdgeStyle;rounded=1;orthogonalLoop=1;jettySize=auto;html=1;exitX=0.5;exitY=1;exitDx=0;exitDy=0;entryX=0;entryY=0.5;entryDx=0;entryDy=0;endArrow=none;endFill=0;" parent="yjC3ri-hcoDWxH1MKi11-1" source="yjC3ri-hcoDWxH1MKi11-82" target="yjC3ri-hcoDWxH1MKi11-83" edge="1">
          <mxGeometry relative="1" as="geometry">
            <Array as="points">
              <mxPoint x="1700" y="510" />
            </Array>
          </mxGeometry>
        </mxCell>
        <mxCell id="yjC3ri-hcoDWxH1MKi11-82" value="News&lt;br&gt;(Sujets automatiques)" style="rounded=0;whiteSpace=wrap;html=1;" parent="yjC3ri-hcoDWxH1MKi11-1" vertex="1">
          <mxGeometry x="1640" y="430" width="120" height="60" as="geometry" />
        </mxCell>
        <mxCell id="yjC3ri-hcoDWxH1MKi11-83" value="Statistiques" style="rounded=0;whiteSpace=wrap;html=1;" parent="yjC3ri-hcoDWxH1MKi11-1" vertex="1">
          <mxGeometry x="1740" y="500" width="120" height="60" as="geometry" />
        </mxCell>
        <mxCell id="yjC3ri-hcoDWxH1MKi11-116" style="edgeStyle=elbowEdgeStyle;rounded=1;orthogonalLoop=1;jettySize=auto;html=1;exitX=0.5;exitY=1;exitDx=0;exitDy=0;entryX=0;entryY=0.5;entryDx=0;entryDy=0;endArrow=none;endFill=0;" parent="yjC3ri-hcoDWxH1MKi11-1" source="yjC3ri-hcoDWxH1MKi11-84" target="yjC3ri-hcoDWxH1MKi11-85" edge="1">
          <mxGeometry relative="1" as="geometry">
            <Array as="points">
              <mxPoint x="1700" y="650" />
            </Array>
          </mxGeometry>
        </mxCell>
        <mxCell id="yjC3ri-hcoDWxH1MKi11-84" value="Liste Sujets" style="rounded=0;whiteSpace=wrap;html=1;" parent="yjC3ri-hcoDWxH1MKi11-1" vertex="1">
          <mxGeometry x="1640" y="570" width="120" height="60" as="geometry" />
        </mxCell>
        <mxCell id="yjC3ri-hcoDWxH1MKi11-85" value="Statistiques" style="rounded=0;whiteSpace=wrap;html=1;" parent="yjC3ri-hcoDWxH1MKi11-1" vertex="1">
          <mxGeometry x="1740" y="640" width="120" height="60" as="geometry" />
        </mxCell>
        <mxCell id="yjC3ri-hcoDWxH1MKi11-86" value="Messages" style="rounded=0;whiteSpace=wrap;html=1;" parent="yjC3ri-hcoDWxH1MKi11-1" vertex="1">
          <mxGeometry x="1640" y="710" width="120" height="60" as="geometry" />
        </mxCell>
        <mxCell id="yjC3ri-hcoDWxH1MKi11-87" style="edgeStyle=elbowEdgeStyle;rounded=1;orthogonalLoop=1;jettySize=auto;elbow=vertical;html=1;exitX=0.5;exitY=1;exitDx=0;exitDy=0;entryX=0.5;entryY=0;entryDx=0;entryDy=0;endArrow=none;endFill=0;" parent="yjC3ri-hcoDWxH1MKi11-1" source="yjC3ri-hcoDWxH1MKi11-10" target="yjC3ri-hcoDWxH1MKi11-34" edge="1">
          <mxGeometry relative="1" as="geometry" />
        </mxCell>
        <mxCell id="yjC3ri-hcoDWxH1MKi11-88" style="edgeStyle=elbowEdgeStyle;rounded=1;orthogonalLoop=1;jettySize=auto;elbow=vertical;html=1;exitX=0.5;exitY=1;exitDx=0;exitDy=0;entryX=0.5;entryY=0;entryDx=0;entryDy=0;endArrow=none;endFill=0;" parent="yjC3ri-hcoDWxH1MKi11-1" source="yjC3ri-hcoDWxH1MKi11-10" target="yjC3ri-hcoDWxH1MKi11-53" edge="1">
          <mxGeometry relative="1" as="geometry" />
        </mxCell>
        <mxCell id="yjC3ri-hcoDWxH1MKi11-89" style="edgeStyle=elbowEdgeStyle;rounded=1;orthogonalLoop=1;jettySize=auto;elbow=vertical;html=1;exitX=0.5;exitY=1;exitDx=0;exitDy=0;entryX=0.5;entryY=0;entryDx=0;entryDy=0;endArrow=none;endFill=0;" parent="yjC3ri-hcoDWxH1MKi11-1" source="yjC3ri-hcoDWxH1MKi11-10" target="yjC3ri-hcoDWxH1MKi11-59" edge="1">
          <mxGeometry relative="1" as="geometry" />
        </mxCell>
        <mxCell id="yjC3ri-hcoDWxH1MKi11-90" style="edgeStyle=elbowEdgeStyle;rounded=1;orthogonalLoop=1;jettySize=auto;elbow=vertical;html=1;exitX=0.5;exitY=1;exitDx=0;exitDy=0;entryX=0.5;entryY=0;entryDx=0;entryDy=0;endArrow=none;endFill=0;" parent="yjC3ri-hcoDWxH1MKi11-1" source="yjC3ri-hcoDWxH1MKi11-10" target="yjC3ri-hcoDWxH1MKi11-69" edge="1">
          <mxGeometry relative="1" as="geometry" />
        </mxCell>
        <mxCell id="yjC3ri-hcoDWxH1MKi11-91" style="edgeStyle=elbowEdgeStyle;rounded=1;orthogonalLoop=1;jettySize=auto;elbow=vertical;html=1;exitX=0.5;exitY=1;exitDx=0;exitDy=0;entryX=0.5;entryY=0;entryDx=0;entryDy=0;endArrow=none;endFill=0;" parent="yjC3ri-hcoDWxH1MKi11-1" source="yjC3ri-hcoDWxH1MKi11-10" target="yjC3ri-hcoDWxH1MKi11-76" edge="1">
          <mxGeometry relative="1" as="geometry" />
        </mxCell>
        <mxCell id="yjC3ri-hcoDWxH1MKi11-92" style="edgeStyle=elbowEdgeStyle;rounded=1;orthogonalLoop=1;jettySize=auto;html=1;exitX=0.5;exitY=1;exitDx=0;exitDy=0;entryX=0.5;entryY=0;entryDx=0;entryDy=0;endArrow=none;endFill=0;elbow=vertical;" parent="yjC3ri-hcoDWxH1MKi11-1" source="yjC3ri-hcoDWxH1MKi11-10" target="yjC3ri-hcoDWxH1MKi11-79" edge="1">
          <mxGeometry relative="1" as="geometry" />
        </mxCell>
      </root>
    </mxGraphModel>
  </diagram>
</mxfile>
